<svg width="2499" height="492" viewBox="0 0 2499 492" fill="none" xmlns="http://www.w3.org/2000/svg">
<g clip-path="url(#clip0_50_638)">
<path d="M380.41 414.09C373.3 419.78 365.81 425.06 358 429.82C348.2 435.82 337.89 441.02 327.15 445.4C302.12 455.64 274.74 461.29 246.05 461.29C217.36 461.29 190.02 455.64 164.97 445.42C154.23 441.02 143.93 435.82 134.14 429.84C126.33 425.06 118.85 419.79 111.73 414.09L103.27 420.36L86.1899 432.99C93.0399 438.83 100.19 444.33 107.65 449.42C116.87 455.73 126.55 461.37 136.59 466.39C169.58 482.86 206.76 492.15 246.05 492.15C285.34 492.15 322.54 482.86 355.53 466.39C365.6 461.38 375.26 455.71 384.47 449.42C391.93 444.33 399.09 438.83 405.93 432.97L388.87 420.36L380.41 414.09Z" fill="url(#paint0_linear_50_638)"/>
<path d="M423.85 76.12L398.86 94.67L373.78 113.3L343.91 135.45L246.06 207.82L224.23 191.65L179.11 158.3L148.22 135.45V103.16L246.06 175.52L343.91 103.16L353.43 96.08L379.12 77.03C370.55 70.28 361.45 64.19 351.93 58.8C320.63 41.03 284.52 30.85 246.05 30.85C188.05 30.85 135.34 53.95 96.6 91.4L71.52 72.85C116.13 27.9 177.89 0 246.05 0C294.87 0 340.39 14.31 378.69 38.91C387.74 44.75 396.43 51.16 404.64 58.08C411.35 63.77 417.77 69.78 423.84 76.12H423.85Z" fill="url(#paint1_linear_50_638)"/>
<path d="M313.01 364.25L343.91 387.09V232.64L313.01 255.49V364.25Z" fill="url(#paint2_linear_50_638)"/>
<path d="M148.22 387.11L148.23 387.1L179.11 364.25V255.49L148.22 232.64V387.11Z" fill="url(#paint3_linear_50_638)"/>
<path d="M443.77 99.7695L419.01 118.14C445.56 153.93 461.28 198.2 461.28 246.08C461.28 302.71 439.28 354.27 403.4 392.74L407.23 395.58L428.35 411.18C467.96 367.49 492.14 309.57 492.14 246.09C492.14 191.33 474.15 140.7 443.78 99.7795L443.77 99.7695Z" fill="url(#paint4_linear_50_638)"/>
<path d="M343.91 168.01V200.32L313.02 223.17L311.77 224.12L289.93 240.26L267.92 256.54L246.08 272.69L224.24 256.54L202.24 240.26L180.4 224.12L179.15 223.17L148.24 200.32V200.29L86.18 154.38L61.26 135.94C55.93 144.87 51.24 154.22 47.2 163.92C36.7 189.25 30.87 217.01 30.87 246.08C30.87 302.71 52.88 354.3 88.76 392.76L84.98 395.56L63.81 411.19C24.17 367.49 0 309.56 0 246.07C0 210.1 7.79 175.9 21.73 145.07C26.03 135.55 30.88 126.35 36.33 117.52C40.88 110.12 45.81 102.98 51.12 96.1201L75.89 114.46L100.71 132.8L171.05 184.87H171.06L179.12 190.85L202.22 207.93L224.06 224.11L246.06 240.36L268.07 224.11L289.91 207.93L313.01 190.85L343.9 168L343.91 168.01Z" fill="url(#paint5_linear_50_638)"/>
<path d="M659.44 336.075L672.64 168.975H708.94L750.04 252.075L791.14 168.975H827.44L840.64 336.075H812.74L802.84 208.575L765.64 283.575H734.44L697.24 208.575L687.34 336.075H659.44ZM904.681 168.975H1024.98V196.875H932.581V238.575H978.781V266.475H932.581V308.175H1024.98V336.075H904.681V168.975ZM1087.76 336.075V168.975H1142.06C1172.36 168.975 1199.36 185.175 1214.36 210.675C1221.86 223.575 1225.46 237.375 1225.46 252.675C1225.46 282.675 1209.26 309.675 1184.06 324.675C1171.16 332.175 1157.36 336.075 1142.06 336.075H1087.76ZM1115.66 308.175H1142.06C1162.16 308.175 1180.46 297.375 1190.36 280.275C1195.46 271.875 1197.86 262.575 1197.86 252.675C1197.86 232.275 1187.06 214.275 1169.96 204.375C1161.26 199.275 1151.96 196.875 1142.06 196.875H1115.66V308.175ZM1286.39 336.075V168.975H1314.29V336.075H1286.39ZM1387.42 336.075V168.975H1415.32V308.175H1497.22V336.075H1387.42ZM1557.61 168.975H1677.91V196.875H1585.51V238.575H1631.71V266.475H1585.51V308.175H1677.91V336.075H1557.61V168.975ZM1740.69 336.075V168.975H1794.99C1825.29 168.975 1852.29 185.175 1867.29 210.675C1874.79 223.575 1878.39 237.375 1878.39 252.675C1878.39 282.675 1862.19 309.675 1836.99 324.675C1824.09 332.175 1810.29 336.075 1794.99 336.075H1740.69ZM1768.59 308.175H1794.99C1815.09 308.175 1833.39 297.375 1843.29 280.275C1848.39 271.875 1850.79 262.575 1850.79 252.675C1850.79 232.275 1839.99 214.275 1822.89 204.375C1814.19 199.275 1804.89 196.875 1794.99 196.875H1768.59V308.175ZM1945.02 294.375C1937.52 281.475 1933.62 267.675 1933.62 252.675C1933.62 222.375 1949.82 195.075 1975.32 180.075C1988.22 172.575 2002.02 168.975 2017.32 168.975C2043.42 168.975 2068.32 181.575 2083.92 202.275L2061.72 219.075C2051.22 204.975 2035.02 196.875 2017.32 196.875C1986.72 196.875 1961.52 222.075 1961.52 252.675C1961.52 282.975 1986.72 308.175 2017.32 308.175C2031.72 308.175 2045.82 302.175 2055.72 292.275V276.375H2023.92V248.475H2083.92V335.775H2055.72V326.475C2044.02 332.775 2031.12 336.075 2017.32 336.075C1987.02 336.075 1959.72 319.875 1945.02 294.375ZM2149.34 168.975H2269.64V196.875H2177.24V238.575H2223.44V266.475H2177.24V308.175H2269.64V336.075H2149.34V168.975ZM2332.72 168.975H2406.22C2425.72 168.975 2443.72 179.475 2453.62 196.275C2458.42 204.675 2460.82 213.675 2460.82 223.575C2460.82 243.675 2450.02 261.375 2433.22 270.975L2460.22 336.075H2430.22L2405.92 278.175H2360.62V336.075H2332.72V168.975ZM2360.62 196.875V250.275H2406.22C2420.92 250.275 2432.92 238.275 2432.92 223.575C2432.92 208.875 2420.92 196.875 2406.22 196.875H2360.62Z" fill="#092041"/>
</g>
<defs>
<linearGradient id="paint0_linear_50_638" x1="-32.0401" y1="151.08" x2="320.07" y2="508" gradientUnits="userSpaceOnUse">
<stop stop-color="#03B3D9"/>
<stop offset="1" stop-color="#4489C9"/>
</linearGradient>
<linearGradient id="paint1_linear_50_638" x1="148.02" y1="-26.56" x2="500.14" y2="330.36" gradientUnits="userSpaceOnUse">
<stop stop-color="#03B3D9"/>
<stop offset="1" stop-color="#4489C9"/>
</linearGradient>
<linearGradient id="paint2_linear_50_638" x1="76.9801" y1="43.5297" x2="429.09" y2="400.45" gradientUnits="userSpaceOnUse">
<stop stop-color="#03B3D9"/>
<stop offset="1" stop-color="#4489C9"/>
</linearGradient>
<linearGradient id="paint3_linear_50_638" x1="-17.96" y1="137.19" x2="334.15" y2="494.11" gradientUnits="userSpaceOnUse">
<stop stop-color="#03B3D9"/>
<stop offset="1" stop-color="#4489C9"/>
</linearGradient>
<linearGradient id="paint4_linear_50_638" x1="151.28" y1="-29.7705" x2="503.39" y2="327.15" gradientUnits="userSpaceOnUse">
<stop stop-color="#03B3D9"/>
<stop offset="1" stop-color="#4489C9"/>
</linearGradient>
<linearGradient id="paint5_linear_50_638" x1="18.25" y1="101.47" x2="370.37" y2="458.38" gradientUnits="userSpaceOnUse">
<stop stop-color="#03B3D9"/>
<stop offset="1" stop-color="#4489C9"/>
</linearGradient>
<clipPath id="clip0_50_638">
<rect width="2499" height="492" fill="white"/>
</clipPath>
</defs>
</svg>
