<svg width="24" height="25" viewBox="0 0 24 25" fill="none" xmlns="http://www.w3.org/2000/svg">
<path fill-rule="evenodd" clip-rule="evenodd" d="M8.99999 4.89355C9.16296 4.89359 9.32148 4.9467 9.45156 5.04485C9.58165 5.14301 9.67623 5.28086 9.72099 5.43755L10.534 8.28355C10.709 8.89647 11.0374 9.45465 11.4882 9.90538C11.9389 10.3561 12.4971 10.6845 13.11 10.8596L15.956 11.6726C16.1126 11.7174 16.2503 11.812 16.3484 11.9421C16.4464 12.0722 16.4995 12.2307 16.4995 12.3936C16.4995 12.5564 16.4464 12.7149 16.3484 12.845C16.2503 12.9751 16.1126 13.0697 15.956 13.1146L13.11 13.9276C12.4971 14.1026 11.9389 14.431 11.4882 14.8817C11.0374 15.3325 10.709 15.8906 10.534 16.5036L9.72099 19.3496C9.67613 19.5061 9.58151 19.6439 9.45143 19.7419C9.32135 19.84 9.16289 19.893 8.99999 19.893C8.8371 19.893 8.67863 19.84 8.54855 19.7419C8.41847 19.6439 8.32385 19.5061 8.27899 19.3496L7.46599 16.5036C7.29094 15.8906 6.96255 15.3325 6.51182 14.8817C6.06109 14.431 5.50291 14.1026 4.88999 13.9276L2.04399 13.1146C1.8874 13.0697 1.74967 12.9751 1.65162 12.845C1.55357 12.7149 1.50053 12.5564 1.50053 12.3936C1.50053 12.2307 1.55357 12.0722 1.65162 11.9421C1.74967 11.812 1.8874 11.7174 2.04399 11.6726L4.88999 10.8596C5.50291 10.6845 6.06109 10.3561 6.51182 9.90538C6.96255 9.45465 7.29094 8.89647 7.46599 8.28355L8.27899 5.43755C8.32375 5.28086 8.41833 5.14301 8.54842 5.04485C8.67851 4.9467 8.83703 4.89359 8.99999 4.89355Z" fill="#6342FF"/>
<path fill-rule="evenodd" clip-rule="evenodd" d="M18 1.89355C18.1673 1.89346 18.3299 1.94932 18.4618 2.05224C18.5937 2.15516 18.6874 2.29924 18.728 2.46155L18.986 3.49755C19.222 4.43755 19.956 5.17155 20.896 5.40755L21.932 5.66555C22.0946 5.70584 22.2391 5.79941 22.3423 5.93135C22.4456 6.0633 22.5017 6.22601 22.5017 6.39355C22.5017 6.56109 22.4456 6.72381 22.3423 6.85576C22.2391 6.9877 22.0946 7.08127 21.932 7.12155L20.896 7.37955C19.956 7.61555 19.222 8.34955 18.986 9.28955L18.728 10.3256C18.6877 10.4882 18.5941 10.6326 18.4622 10.7359C18.3303 10.8391 18.1675 10.8952 18 10.8952C17.8325 10.8952 17.6697 10.8391 17.5378 10.7359C17.4059 10.6326 17.3123 10.4882 17.272 10.3256L17.014 9.28955C16.8986 8.82798 16.6599 8.40645 16.3235 8.07003C15.9871 7.73361 15.5656 7.49494 15.104 7.37955L14.068 7.12155C13.9054 7.08127 13.7609 6.9877 13.6577 6.85576C13.5544 6.72381 13.4983 6.56109 13.4983 6.39355C13.4983 6.22601 13.5544 6.0633 13.6577 5.93135C13.7609 5.79941 13.9054 5.70584 14.068 5.66555L15.104 5.40755C15.5656 5.29217 15.9871 5.0535 16.3235 4.71708C16.6599 4.38066 16.8986 3.95912 17.014 3.49755L17.272 2.46155C17.3126 2.29924 17.4063 2.15516 17.5382 2.05224C17.6701 1.94932 17.8327 1.89346 18 1.89355Z" fill="#6342FF"/>
<path fill-rule="evenodd" clip-rule="evenodd" d="M16.5 15.3936C16.6575 15.3935 16.8111 15.443 16.9389 15.535C17.0667 15.6271 17.1622 15.7571 17.212 15.9066L17.606 17.0896C17.756 17.5366 18.106 17.8886 18.554 18.0376L19.737 18.4326C19.886 18.4826 20.0155 18.5781 20.1072 18.7057C20.1989 18.8333 20.2483 18.9864 20.2483 19.1436C20.2483 19.3007 20.1989 19.4539 20.1072 19.5814C20.0155 19.709 19.886 19.8045 19.737 19.8546L18.554 20.2496C18.107 20.3996 17.755 20.7496 17.606 21.1976L17.211 22.3806C17.161 22.5295 17.0654 22.659 16.9379 22.7508C16.8103 22.8425 16.6571 22.8919 16.5 22.8919C16.3429 22.8919 16.1897 22.8425 16.0621 22.7508C15.9345 22.659 15.839 22.5295 15.789 22.3806L15.394 21.1976C15.3203 20.9768 15.1963 20.7763 15.0318 20.6117C14.8673 20.4472 14.6667 20.3232 14.446 20.2496L13.263 19.8546C13.114 19.8045 12.9845 19.709 12.8928 19.5814C12.801 19.4539 12.7517 19.3007 12.7517 19.1436C12.7517 18.9864 12.801 18.8333 12.8928 18.7057C12.9845 18.5781 13.114 18.4826 13.263 18.4326L14.446 18.0376C14.893 17.8876 15.245 17.5376 15.394 17.0896L15.789 15.9066C15.8387 15.7573 15.9341 15.6274 16.0617 15.5353C16.1893 15.4433 16.3426 15.3937 16.5 15.3936Z" fill="#6342FF"/>
</svg>
