<svg width="22" height="22" viewBox="0 0 22 22" fill="none" xmlns="http://www.w3.org/2000/svg">
<path fill-rule="evenodd" clip-rule="evenodd" d="M3.53553 18.0707C3.35972 17.8949 3.26095 17.6564 3.26095 17.4078C3.26095 17.1592 3.35972 16.9207 3.53553 16.7449L14.6634 5.61698L11.0838 5.74956C10.9607 5.7542 10.838 5.73457 10.7225 5.69177C10.6071 5.64898 10.5012 5.58387 10.4109 5.50015C10.3206 5.41643 10.2477 5.31575 10.1964 5.20386C10.145 5.09197 10.1162 4.97105 10.1115 4.84802C10.1021 4.59953 10.1919 4.3575 10.3609 4.17517C10.4446 4.08489 10.5453 4.01198 10.6572 3.96061C10.7691 3.90923 10.89 3.8804 11.0131 3.87576L16.9792 3.65479C17.1082 3.64991 17.2368 3.67172 17.3569 3.71886C17.4771 3.76599 17.5862 3.83743 17.6775 3.92871C17.7688 4.01998 17.8402 4.12912 17.8874 4.24929C17.9345 4.36945 17.9563 4.49806 17.9514 4.62705L17.7305 10.5932C17.7211 10.8416 17.6134 11.0762 17.4311 11.2453C17.2487 11.4144 17.0067 11.5041 16.7582 11.4947C16.5097 11.4853 16.2751 11.3776 16.1061 11.1953C15.937 11.013 15.8473 10.7709 15.8567 10.5225L15.9892 6.94278L4.86134 18.0707C4.68552 18.2465 4.44707 18.3453 4.19843 18.3453C3.9498 18.3453 3.71135 18.2465 3.53553 18.0707Z" fill="white"/>
</svg>
