<svg width="24" height="24" viewBox="0 0 24 24" fill="none" xmlns="http://www.w3.org/2000/svg">
<path d="M3 9.99933C3 8.99658 3.76713 8.18368 4.71342 8.18368C5.65972 8.18368 6.42685 8.99658 6.42685 9.99933V19.1844C6.42685 20.1871 5.65972 21 4.71342 21C3.76713 21 3 20.1871 3 19.1844V9.99933Z" fill="#52B9F3"/>
<path d="M10.4562 3.16996C10.4954 2.99694 11.1532 2.98048 11.8617 3.01434C12.884 3.06319 13.6508 3.98794 13.6508 5.07233V8.18368H17.9756C19.844 8.18368 21.2653 9.96152 20.9581 11.9145L19.8941 18.6796C19.6835 20.0186 18.5902 21 17.3092 21H10.962C9.29205 21 7.9383 19.5655 7.9383 17.7959V10.9606C7.9383 10.0406 8.36046 9.22514 9.0107 8.71983C9.54909 8.01945 10.458 6.718 10.458 3.91158H10.4662C10.4635 3.88753 10.4609 3.86438 10.4583 3.84205C10.4242 3.54061 10.4069 3.38702 10.4562 3.16996Z" fill="#3448FF"/>
</svg>
