<svg width="24" height="25" viewBox="0 0 24 25" fill="none" xmlns="http://www.w3.org/2000/svg">
<path fill-rule="evenodd" clip-rule="evenodd" d="M2.25 4.51855C2.25 3.48255 3.09 2.64355 4.125 2.64355H9.375C10.411 2.64355 11.25 3.48355 11.25 4.51855V17.6436C11.25 18.837 10.7759 19.9816 9.93198 20.8255C9.08807 21.6694 7.94347 22.1436 6.75 22.1436C5.55653 22.1436 4.41193 21.6694 3.56802 20.8255C2.72411 19.9816 2.25 18.837 2.25 17.6436V4.51855ZM6.75 18.7686C7.04837 18.7686 7.33452 18.65 7.5455 18.4391C7.75647 18.2281 7.875 17.9419 7.875 17.6436C7.875 17.3452 7.75647 17.059 7.5455 16.8481C7.33452 16.6371 7.04837 16.5186 6.75 16.5186C6.45163 16.5186 6.16548 16.6371 5.9545 16.8481C5.74353 17.059 5.625 17.3452 5.625 17.6436C5.625 17.9419 5.74353 18.2281 5.9545 18.4391C6.16548 18.65 6.45163 18.7686 6.75 18.7686Z" fill="url(#paint0_linear_72_2750)"/>
<path d="M10.719 22.1436H19.875C20.911 22.1436 21.75 21.3036 21.75 20.2686V15.0186C21.75 13.9826 20.91 13.1436 19.875 13.1436H19.735L10.993 21.8866C10.903 21.9756 10.813 22.0616 10.719 22.1436Z" fill="url(#paint1_linear_72_2750)"/>
<path d="M12.738 18.0187L19.212 11.5447C19.5634 11.1931 19.7609 10.7163 19.7609 10.2192C19.7609 9.72206 19.5634 9.24529 19.212 8.89369L15.5 5.18069C15.1484 4.82925 14.6716 4.63184 14.1745 4.63184C13.6774 4.63184 13.2006 4.82925 12.849 5.18069L12.749 5.27969V17.6437C12.749 17.7697 12.746 17.8947 12.739 18.0187H12.738Z" fill="url(#paint2_linear_72_2750)"/>
<defs>
<linearGradient id="paint0_linear_72_2750" x1="6.75799" y1="-1.43978" x2="-8.17051" y2="11.702" gradientUnits="userSpaceOnUse">
<stop stop-color="#FDAE8F"/>
<stop offset="1" stop-color="#FD1C68"/>
</linearGradient>
<linearGradient id="paint1_linear_72_2750" x1="16.2443" y1="11.2589" x2="11.2209" y2="23.0024" gradientUnits="userSpaceOnUse">
<stop stop-color="#FDAE8F"/>
<stop offset="1" stop-color="#FD1C68"/>
</linearGradient>
<linearGradient id="paint2_linear_72_2750" x1="16.2557" y1="1.82861" x2="5.9238" y2="12.1668" gradientUnits="userSpaceOnUse">
<stop stop-color="#FDAE8F"/>
<stop offset="1" stop-color="#FD1C68"/>
</linearGradient>
</defs>
</svg>
