<svg width="16" height="17" viewBox="0 0 16 17" fill="none" xmlns="http://www.w3.org/2000/svg">
<path fill-rule="evenodd" clip-rule="evenodd" d="M7.99949 15.289C11.5341 15.289 14.3995 12.4236 14.3995 8.88898C14.3995 5.35436 11.5341 2.48898 7.99949 2.48898C4.46486 2.48898 1.59949 5.35436 1.59949 8.88898C1.59949 12.4236 4.46486 15.289 7.99949 15.289ZM10.9652 7.85467C11.2776 7.54225 11.2776 7.03572 10.9652 6.7233C10.6528 6.41088 10.1462 6.41088 9.8338 6.7233L7.19949 9.35761L6.16517 8.3233C5.85275 8.01088 5.34622 8.01088 5.0338 8.3233C4.72138 8.63572 4.72138 9.14225 5.0338 9.45467L6.6338 11.0547C6.94622 11.3671 7.45275 11.3671 7.76517 11.0547L10.9652 7.85467Z" fill="#111B29"/>
</svg>
