<svg width="20" height="21" viewBox="0 0 20 21" fill="none" xmlns="http://www.w3.org/2000/svg">
<path d="M15.8333 8.83333C15.8333 12.055 9.99996 15.0833 9.99996 15.0833C9.99996 15.0833 4.16663 12.055 4.16663 8.83333C4.16663 5.61167 6.7783 3 9.99996 3C13.2216 3 15.8333 5.61167 15.8333 8.83333Z" fill="#3448FF"/>
<path d="M12.5 17.1667C12.5 17.6269 11.3807 18 9.99996 18C8.61925 18 7.49996 17.6269 7.49996 17.1667C7.49996 16.7064 8.61925 16.3333 9.99996 16.3333C11.3807 16.3333 12.5 16.7064 12.5 17.1667Z" fill="#52B9F3"/>
<path d="M11.6666 8.83333C11.6666 9.75381 10.9204 10.5 9.99996 10.5C9.07949 10.5 8.33329 9.75381 8.33329 8.83333C8.33329 7.91286 9.07949 7.16667 9.99996 7.16667C10.9204 7.16667 11.6666 7.91286 11.6666 8.83333Z" fill="white"/>
</svg>
