<svg width="24" height="24" viewBox="0 0 24 24" fill="none" xmlns="http://www.w3.org/2000/svg">
<path d="M10.611 13.8718C10.611 14.3092 10.9656 14.6638 11.403 14.6638C13.0592 14.6638 14.6162 14.0188 15.7873 12.8478L21.5794 7.05511C22.5079 6.12658 22.5081 4.62351 21.5794 3.69482C20.653 2.76839 19.1456 2.76839 18.2191 3.69482L12.427 9.48747C11.2559 10.6586 10.611 12.2156 10.611 13.8718ZM19.3392 4.81495C19.648 4.50614 20.1505 4.50614 20.4593 4.81495C20.7688 5.12439 20.7689 5.62547 20.4593 5.93503L14.6672 11.7277C14.0051 12.3898 13.1772 12.826 12.2771 12.9976C12.4487 12.0976 12.885 11.2697 13.547 10.6076L19.3392 4.81495Z" fill="#3448FF"/>
<path d="M4.37608 21.0001C4.96044 21.0004 5.52437 20.7851 5.95981 20.3954L7.05467 19.416H15.1476C17.3313 19.416 19.1078 17.6395 19.1078 15.4559V13.6793C19.1078 13.2418 18.7532 12.8872 18.3157 12.8872C17.8783 12.8872 17.5237 13.2418 17.5237 13.6793V15.4559C17.5237 16.7661 16.4578 17.832 15.1476 17.832H6.75216C6.55733 17.832 6.36933 17.9038 6.22411 18.0337L4.90388 19.2146C4.75875 19.3444 4.57081 19.4161 4.37608 19.416C3.93935 19.416 3.58405 19.0607 3.58405 18.624V9.11968C3.58405 7.80951 4.64996 6.7436 5.96013 6.7436H12.6032C13.0406 6.7436 13.3952 6.38901 13.3952 5.95157C13.3952 5.51414 13.0406 5.15955 12.6032 5.15955H5.96013C3.77647 5.15955 2 6.93606 2 9.11968V18.624C2 19.9342 3.06591 21.0001 4.37608 21.0001Z" fill="#3448FF"/>
<path d="M8.33619 14.6638H5.96012C5.52268 14.6638 5.16809 14.3092 5.16809 13.8718C5.16809 13.4343 5.52268 13.0797 5.96012 13.0797H8.33619C8.77363 13.0797 9.12822 13.4343 9.12822 13.8718C9.12822 14.3092 8.77363 14.6638 8.33619 14.6638Z" fill="#52B9F3"/>
<path d="M8.33619 11.4957H5.96012C5.52268 11.4957 5.16809 11.1411 5.16809 10.7036C5.16809 10.2662 5.52268 9.91162 5.96012 9.91162H8.33619C8.77363 9.91162 9.12822 10.2662 9.12822 10.7036C9.12822 11.1411 8.77363 11.4957 8.33619 11.4957Z" fill="#52B9F3"/>
</svg>
