<svg width="24" height="24" viewBox="0 0 24 24" fill="none" xmlns="http://www.w3.org/2000/svg">
<path fill-rule="evenodd" clip-rule="evenodd" d="M12.4196 7.67681L10.0723 8.31261L10.0715 11.404H15.5527C15.6531 11.404 15.7349 11.3222 15.7349 11.2218V7.85266C15.735 7.82463 15.7286 7.79696 15.7163 7.77181C15.7039 7.74666 15.6859 7.72471 15.6637 7.70768C15.6414 7.69065 15.6155 7.679 15.588 7.67364C15.5605 7.66829 15.5321 7.66938 15.5051 7.67681L12.9847 8.35952C12.9464 8.37221 12.9056 8.37562 12.8657 8.36947C12.8258 8.36331 12.7879 8.34778 12.7551 8.32413C12.7224 8.30049 12.6958 8.26941 12.6774 8.23345C12.659 8.1975 12.6494 8.1577 12.6495 8.11732V7.85263C12.6496 7.8246 12.6432 7.79694 12.6308 7.77179C12.6185 7.74664 12.6004 7.72469 12.5782 7.70767C12.5559 7.69064 12.53 7.679 12.5025 7.67364C12.475 7.66829 12.4466 7.66938 12.4196 7.67681ZM4.55172 9.37064C4.53256 9.43492 4.48877 9.48902 4.42989 9.52115C4.37102 9.55328 4.30183 9.56083 4.23741 9.54216C4.17298 9.52349 4.11855 9.48011 4.08598 9.42148C4.05341 9.36285 4.04533 9.29372 4.06351 9.22916C5.0837 5.69689 8.326 3.26239 12.0025 3.26239C16.4377 3.26239 20.0859 6.76732 20.2594 11.1968L20.5646 10.8915C20.6642 10.7919 20.8257 10.7919 20.9253 10.8915C21.0249 10.9911 21.0249 11.1526 20.9253 11.2521L20.1862 11.9913C20.1383 12.0391 20.0735 12.066 20.0058 12.066C19.9382 12.066 19.8733 12.0391 19.8255 11.9913L19.0863 11.2521C18.9867 11.1526 18.9867 10.9911 19.0863 10.8915C19.1859 10.7919 19.3474 10.7919 19.447 10.8915L19.7486 11.1931C19.5737 7.04692 16.1549 3.77247 12.0026 3.77247C8.55327 3.77253 5.50847 6.0554 4.55172 9.37064ZM4.2493 10.819L4.55304 11.1227C4.60087 11.1705 4.66574 11.1974 4.73339 11.1974C4.80103 11.1974 4.8659 11.1705 4.91373 11.1227C4.96156 11.0749 4.98843 11.01 4.98843 10.9424C4.98843 10.8747 4.96156 10.8099 4.91373 10.762L4.17456 10.0229C4.15088 9.99917 4.12276 9.98038 4.09182 9.96756C4.06087 9.95475 4.02771 9.94815 3.99421 9.94815C3.96072 9.94815 3.92756 9.95475 3.89661 9.96756C3.86567 9.98038 3.83755 9.99917 3.81387 10.0229L3.0747 10.762C3.02687 10.8099 3 10.8747 3 10.9424C3 11.01 3.02687 11.0749 3.0747 11.1227C3.12253 11.1705 3.1874 11.1974 3.25504 11.1974C3.32269 11.1974 3.38756 11.1705 3.43539 11.1227L3.73913 10.819V11.811C3.73913 11.8787 3.766 11.9436 3.81384 11.9914C3.86167 12.0392 3.92655 12.0661 3.9942 12.0661C4.06185 12.0661 4.12673 12.0392 4.17456 11.9914C4.2224 11.9436 4.24927 11.8787 4.24927 11.811L4.2493 10.819ZM19.4848 14.1873C17.9077 14.1873 17.1164 16.0978 18.2315 17.2129C18.4369 17.4184 18.4369 17.7515 18.2315 17.9569L17.099 19.0894C16.8936 19.2948 16.5604 19.2948 16.355 19.0894C15.2399 17.9744 13.3293 18.7656 13.3293 20.3427C13.3293 20.6333 13.0937 20.8688 12.8033 20.8688H11.2017C10.9112 20.8688 10.6756 20.6334 10.6756 20.3427C10.6756 18.7637 8.76645 17.973 7.64997 19.0894C7.44458 19.2948 7.11138 19.2948 6.90599 19.0894L5.77345 17.9569C5.56806 17.7515 5.56806 17.4183 5.77345 17.2129C6.88854 16.0978 6.09727 14.1873 4.52019 14.1873C4.22958 14.1873 3.99414 13.9517 3.99414 13.6612V13.0517C3.99414 12.9515 4.0757 12.8698 4.17589 12.8695L7.91041 12.8608C7.95741 12.8607 8.00263 12.8788 8.03661 12.9113C8.07059 12.9438 8.09071 12.9881 8.09275 13.0351C8.18411 15.1154 9.89957 16.774 12.0024 16.774C14.1054 16.774 15.821 15.1152 15.9122 13.0346C15.9142 12.9878 15.9343 12.9435 15.9681 12.911C16.002 12.8786 16.0471 12.8604 16.0941 12.8604H19.8285C19.9289 12.8604 20.0107 12.9423 20.0107 13.0426V13.6612C20.0108 13.9517 19.7754 14.1873 19.4848 14.1873ZM9.56466 6.67354H8.2695L8.27077 11.2219C8.2708 11.3222 8.35266 11.404 8.45296 11.404H9.56339L9.56466 6.67354ZM8.26936 6.16343H9.5648L9.56492 5.81972C9.56495 5.71936 9.4831 5.6375 9.38273 5.6375H8.45146C8.35109 5.6375 8.26924 5.71939 8.26927 5.81972L8.26936 6.16343ZM13.3707 8.68325H13.7413C13.7703 8.6833 13.7981 8.69483 13.8185 8.71532C13.839 8.73581 13.8506 8.76358 13.8506 8.79255V9.28784C13.8506 9.31682 13.839 9.34459 13.8185 9.36507C13.7981 9.38556 13.7703 9.39709 13.7413 9.39715H13.3707C13.3417 9.39709 13.3139 9.38556 13.2934 9.36507C13.273 9.34459 13.2614 9.31682 13.2614 9.28784V8.79255C13.2614 8.76358 13.2729 8.7358 13.2934 8.71531C13.3139 8.69482 13.3417 8.68329 13.3707 8.68325ZM14.2359 8.68325H14.6065C14.6355 8.6833 14.6632 8.69483 14.6837 8.71532C14.7042 8.73581 14.7157 8.76358 14.7158 8.79255V9.28784C14.7157 9.31682 14.7042 9.34459 14.6837 9.36507C14.6632 9.38556 14.6355 9.39709 14.6065 9.39715H14.2359C14.2069 9.39709 14.1791 9.38556 14.1586 9.36507C14.1381 9.34459 14.1266 9.31682 14.1266 9.28784V8.79255C14.1266 8.76358 14.1381 8.73581 14.1586 8.71532C14.1791 8.69483 14.2069 8.6833 14.2359 8.68325ZM10.8641 8.68325H11.2347C11.2637 8.6833 11.2914 8.69483 11.3119 8.71532C11.3324 8.73581 11.3439 8.76358 11.344 8.79255V9.28784C11.3439 9.31682 11.3324 9.34459 11.3119 9.36507C11.2914 9.38556 11.2637 9.39709 11.2347 9.39715H10.8641C10.8351 9.39709 10.8073 9.38556 10.7868 9.36507C10.7663 9.34459 10.7548 9.31682 10.7548 9.28784V8.79255C10.7548 8.76357 10.7663 8.73579 10.7868 8.7153C10.8073 8.69481 10.8351 8.68328 10.8641 8.68325ZM11.7292 8.68325H12.0999C12.1289 8.6833 12.1566 8.69483 12.1771 8.71532C12.1976 8.73581 12.2091 8.76358 12.2092 8.79255V9.28784C12.2091 9.31682 12.1976 9.34459 12.1771 9.36507C12.1566 9.38556 12.1289 9.39709 12.0999 9.39715H11.7292C11.7003 9.39709 11.6725 9.38556 11.652 9.36507C11.6315 9.34459 11.62 9.31682 11.6199 9.28784V8.79255C11.62 8.76358 11.6315 8.73581 11.652 8.71532C11.6725 8.69483 11.7003 8.6833 11.7292 8.68325Z" fill="#3448FF"/>
<path d="M14.2441 12.9839C14.2522 13.0078 14.2552 13.0332 14.2529 13.0584C14.1527 14.2133 13.1833 15.1195 12.0024 15.1195C10.8215 15.1195 9.85221 14.2133 9.75196 13.0584C9.74968 13.0332 9.75268 13.0078 9.76078 12.9839C9.76887 12.9599 9.78188 12.9379 9.79897 12.9193C9.81606 12.9007 9.83686 12.8858 9.86002 12.8757C9.88319 12.8656 9.90822 12.8604 9.9335 12.8605H14.0713C14.0966 12.8604 14.1217 12.8655 14.1448 12.8756C14.168 12.8858 14.1888 12.9006 14.2059 12.9193C14.223 12.9379 14.236 12.9599 14.2441 12.9839Z" fill="#52B9F3"/>
</svg>
