<svg width="24" height="24" viewBox="0 0 24 24" fill="none" xmlns="http://www.w3.org/2000/svg">
<path d="M7.50007 5.99551C7.50004 4.33863 8.8432 3 10.5001 3H18C19.6569 3 21 4.34315 21 6V18C21 19.6569 19.6569 21 18 21H5.99961C5.99961 21 7.49961 21 7.5 19C7.50027 17.5909 7.50016 10.2249 7.50007 5.99551Z" fill="#3448FF"/>
<path d="M10.5 7.5C10.5 6.67157 11.1716 6 12 6H16.5C17.3284 6 18 6.67157 18 7.5C18 8.32843 17.3284 9 16.5 9H12C11.1716 9 10.5 8.32843 10.5 7.5Z" fill="white"/>
<path fill-rule="evenodd" clip-rule="evenodd" d="M10.5 12.25C10.5 11.8358 10.8358 11.5 11.25 11.5H17.25C17.6642 11.5 18 11.8358 18 12.25C18 12.6642 17.6642 13 17.25 13H11.25C10.8358 13 10.5 12.6642 10.5 12.25Z" fill="white"/>
<path d="M3 11C3 9.89543 3.89543 9 5 9H6V18.5C6 19.3284 5.32843 20 4.5 20Lnan nanL4.5 20C3.67157 20 3 19.3284 3 18.5V11Z" fill="#52B9F3"/>
</svg>
