<svg width="24" height="24" viewBox="0 0 24 24" fill="none" xmlns="http://www.w3.org/2000/svg">
<path d="M5.20923 11.4022H8.69517V14.8882H5.20923V11.4022Z" fill="#3448FF"/>
<path d="M9.74109 11.4022H13.227V14.8882H9.74109V11.4022Z" fill="#3448FF"/>
<path d="M5.20923 5.04749H8.69517V8.53361H5.20923V5.04749Z" fill="#3448FF"/>
<path d="M18.1893 7.83002C17.3393 7.83002 16.6484 8.52173 16.6484 9.3715C16.6484 10.2215 17.3393 10.9143 18.1893 10.9143C19.0382 10.9143 19.7321 10.2216 19.7321 9.3715C19.7323 8.52171 19.0382 7.83002 18.1893 7.83002Z" fill="#52B9F3"/>
<path d="M16.6348 22.4641H19.8471V17.0706H21.0505L21.0483 12.7174C21.0483 11.9552 20.4325 11.3378 19.672 11.3378H16.8006C16.0406 11.3378 15.4237 11.9549 15.4237 12.7174L15.4196 17.0706H16.6347V22.4641H16.6348Z" fill="#3448FF"/>
<path d="M4.34612 15.6227V10.6798H13.227V9.38427H4.34612V5.04755H3.05054V22.464H4.34612V16.9183H12.0245V22.464H13.3201V15.6228L4.34612 15.6227Z" fill="#3448FF"/>
<path d="M11.8913 4.67352L15.2622 5.56209L14.3736 8.93332L11.0027 8.04476L11.8913 4.67352Z" fill="#52B9F3"/>
<path d="M10.3346 4.98348L8.73962 3.66722L9.12165 3.20428L10.7167 4.52054L10.3346 4.98348Z" fill="#52B9F3"/>
<path d="M11.1592 3.51064L10.3905 1.4588L10.9527 1.24829L11.7215 3.30013L11.1592 3.51064Z" fill="#52B9F3"/>
<path d="M13.1749 3.36291L12.5972 3.19805L13.0564 1.5874L13.6335 1.75198L13.1749 3.36291Z" fill="#52B9F3"/>
</svg>
