<svg width="24" height="24" viewBox="0 0 24 24" fill="none" xmlns="http://www.w3.org/2000/svg">
<path d="M21 12C21 16.9706 16.9706 21 12 21C7.02944 21 3 16.9706 3 12C3 7.02944 7.02944 3 12 3C16.9706 3 21 7.02944 21 12Z" fill="#3448FF"/>
<path d="M12.0436 14.0836C11.4902 14.0836 11.0316 13.6334 11.0915 13.0832C11.1123 12.8924 11.1396 12.7244 11.1733 12.6014C11.2643 12.2816 11.396 12.025 11.5685 11.8318C11.741 11.6355 11.9511 11.4565 12.1989 11.295C12.3964 11.1683 12.5721 11.0401 12.7257 10.9102C12.8825 10.7772 13.0064 10.6347 13.0974 10.4827C13.1883 10.3306 13.2338 10.158 13.2338 9.96485C13.2338 9.77799 13.1899 9.6133 13.1021 9.47078C13.0143 9.32827 12.8935 9.219 12.7398 9.14299C12.5893 9.06382 12.4215 9.02423 12.2365 9.02423C12.0515 9.02423 11.8774 9.06698 11.7143 9.15249C11.5544 9.238 11.4227 9.35994 11.3192 9.51829C11.1403 9.79495 10.8993 10.0836 10.5698 10.0836H10.0973C9.49379 10.0836 8.97457 9.57441 9.17498 9.00518C9.24674 8.80135 9.34052 8.6161 9.45631 8.44941C9.75424 8.02502 10.1478 7.71148 10.6371 7.50879C11.1263 7.30293 11.6657 7.2 12.2553 7.2C12.9014 7.2 13.4753 7.30135 13.977 7.50404C14.482 7.70673 14.8787 8.00602 15.1672 8.4019C15.4557 8.79778 15.6 9.28234 15.6 9.85558C15.6 10.2325 15.5373 10.565 15.4118 10.8532C15.2864 11.1414 15.1108 11.3964 14.885 11.6181C14.6623 11.8366 14.4004 12.0361 14.0994 12.2166C13.8641 12.356 13.6681 12.5017 13.5113 12.6537C13.3577 12.8057 13.2416 12.9799 13.1632 13.1762C12.9724 13.6464 12.6343 14.0836 12.1269 14.0836H12.0436ZM12.0813 17.2C11.7426 17.2 11.4525 17.0797 11.211 16.839C10.9726 16.5983 10.855 16.3069 10.8582 15.9648C10.855 15.6291 10.9726 15.3425 11.211 15.105C11.4525 14.8643 11.7426 14.7439 12.0813 14.7439C12.4043 14.7439 12.6881 14.8643 12.9327 15.105C13.1773 15.3425 13.3012 15.6291 13.3043 15.9648C13.3012 16.1929 13.2416 16.4003 13.1256 16.5872C13.0127 16.774 12.8637 16.9229 12.6787 17.0337C12.4968 17.1446 12.2976 17.2 12.0813 17.2Z" fill="white"/>
</svg>
