<svg width="24" height="24" viewBox="0 0 24 24" fill="none" xmlns="http://www.w3.org/2000/svg">
<path d="M12 6.85714C13.0651 6.85714 13.9286 5.99369 13.9286 4.92857C13.9286 3.86345 13.0651 3 12 3C10.9349 3 10.0714 3.86345 10.0714 4.92857C10.0714 5.99369 10.9349 6.85714 12 6.85714Z" fill="#52B9F3"/>
<path d="M4.92857 13.9286C5.99369 13.9286 6.85714 13.0651 6.85714 12C6.85714 10.9349 5.99369 10.0714 4.92857 10.0714C3.86345 10.0714 3 10.9349 3 12C3 13.0651 3.86345 13.9286 4.92857 13.9286Z" fill="#52B9F3"/>
<path d="M12 21C13.0651 21 13.9286 20.1366 13.9286 19.0715C13.9286 18.0063 13.0651 17.1429 12 17.1429C10.9349 17.1429 10.0714 18.0063 10.0714 19.0715C10.0714 20.1366 10.9349 21 12 21Z" fill="#52B9F3"/>
<path d="M19.0715 13.9286C20.1366 13.9286 21 13.0651 21 12C21 10.9349 20.1366 10.0714 19.0715 10.0714C18.0063 10.0714 17.1429 10.9349 17.1429 12C17.1429 13.0651 18.0063 13.9286 19.0715 13.9286Z" fill="#52B9F3"/>
<path d="M8.78571 18.4286C7.01345 18.4286 5.57142 16.9865 5.57142 15.2143C5.57142 14.8593 5.28358 14.5714 4.92856 14.5714C4.57355 14.5714 4.28571 14.8593 4.28571 15.2143C4.28571 17.6956 6.30436 19.7143 8.78571 19.7143C9.14072 19.7143 9.42856 19.4264 9.42856 19.0714C9.42856 18.7164 9.14072 18.4286 8.78571 18.4286Z" fill="#3448FF"/>
<path d="M4.92856 9.42856C5.28358 9.42856 5.57142 9.14072 5.57142 8.78571C5.57142 7.01345 7.01345 5.57142 8.78571 5.57142C9.14072 5.57142 9.42856 5.28358 9.42856 4.92856C9.42856 4.57355 9.14072 4.28571 8.78571 4.28571C6.30436 4.28571 4.28571 6.30436 4.28571 8.78571C4.28571 9.14072 4.57355 9.42856 4.92856 9.42856Z" fill="#3448FF"/>
<path d="M19.0714 14.5714C18.7164 14.5714 18.4286 14.8593 18.4286 15.2143C18.4286 16.9865 16.9865 18.4286 15.2143 18.4286C14.8593 18.4286 14.5714 18.7164 14.5714 19.0714C14.5714 19.4264 14.8593 19.7143 15.2143 19.7143C17.6956 19.7143 19.7143 17.6956 19.7143 15.2143C19.7143 14.8593 19.4264 14.5714 19.0714 14.5714Z" fill="#3448FF"/>
<path d="M15.2143 5.57142C16.9865 5.57142 18.4286 7.01345 18.4286 8.78571C18.4286 9.14072 18.7164 9.42856 19.0714 9.42856C19.4264 9.42856 19.7143 9.14072 19.7143 8.78571C19.7143 6.30436 17.6956 4.28571 15.2143 4.28571C14.8593 4.28571 14.5714 4.57355 14.5714 4.92856C14.5714 5.28358 14.8593 5.57142 15.2143 5.57142Z" fill="#3448FF"/>
<path d="M9.42857 9.42857H8.14286C7.78784 9.42857 7.5 9.71641 7.5 10.0714V15.2143C7.5 15.5693 7.78784 15.8571 8.14286 15.8571H15.8571C16.2122 15.8571 16.5 15.5693 16.5 15.2143V10.0714C16.5 9.71641 16.2122 9.42857 15.8571 9.42857H14.5714V8.14286C14.5714 7.78784 14.2836 7.5 13.9286 7.5H10.0714C9.71641 7.5 9.42857 7.78784 9.42857 8.14286V9.42857ZM10.7143 8.78571H13.2857V9.42857H10.7143V8.78571ZM10.3929 12.3214H11.6786V11.0357C11.6786 10.858 11.8223 10.7143 12 10.7143C12.1777 10.7143 12.3214 10.858 12.3214 11.0357V12.3214H13.6071C13.7848 12.3214 13.9286 12.4652 13.9286 12.6429C13.9286 12.8205 13.7848 12.9643 13.6071 12.9643H12.3214V14.25C12.3214 14.4277 12.1777 14.5714 12 14.5714C11.8223 14.5714 11.6786 14.4277 11.6786 14.25V12.9643H10.3929C10.2152 12.9643 10.0714 12.8205 10.0714 12.6429C10.0714 12.4652 10.2152 12.3214 10.3929 12.3214Z" fill="#3448FF"/>
</svg>
