<svg width="24" height="24" viewBox="0 0 24 24" fill="none" xmlns="http://www.w3.org/2000/svg">
<path d="M18.6839 6.74022H18.3342V6.18476C18.3342 6.1199 18.3085 6.05769 18.2626 6.01183C18.2167 5.96597 18.1545 5.9402 18.0897 5.9402H16.7201C16.6552 5.9402 16.593 5.96597 16.5472 6.01183C16.5013 6.05769 16.4755 6.1199 16.4755 6.18476V6.74022H15.2608V6.1199C15.2608 5.17158 14.4893 4.40002 13.541 4.40002H10.4589C9.51062 4.40002 8.73907 5.17158 8.73907 6.1199V6.74022H7.52446V6.18476C7.52446 6.1199 7.49869 6.05769 7.45283 6.01183C7.40696 5.96597 7.34475 5.9402 7.27989 5.9402H5.91033C5.84546 5.9402 5.78326 5.96597 5.73739 6.01183C5.69153 6.05769 5.66576 6.1199 5.66576 6.18476V6.74022H5.31613C4.03696 6.74022 3 7.77718 3 9.05635V17.2199C3 18.4991 4.03696 19.5361 5.31613 19.5361H18.6839C19.963 19.5361 21 18.4991 21 17.2199V9.05635C21 7.77718 19.963 6.74022 18.6839 6.74022ZM9.71733 6.1199C9.71733 5.71099 10.05 5.37829 10.4589 5.37829H13.541C13.9499 5.37829 14.2826 5.71099 14.2826 6.1199V6.74022H9.71733V6.1199ZM12 17.3099C9.696 17.3099 7.82821 15.4421 7.82821 13.1381C7.82821 10.8341 9.696 8.96635 12 8.96635C14.304 8.96635 16.1718 10.8341 16.1718 13.1381C16.1718 15.4421 14.304 17.3099 12 17.3099Z" fill="#3448FF"/>
<path d="M15.0605 14.3357C15.1062 14.2897 15.1319 14.2275 15.1319 14.1627L15.1299 12.1078C15.1299 12.043 15.1041 11.9808 15.0582 11.935C15.0124 11.8892 14.95 11.8635 14.8852 11.8635L13.272 11.8649V10.2518C13.272 10.1869 13.2462 10.1247 13.2004 10.0788C13.1545 10.033 13.0923 10.0072 13.0274 10.0072H10.9726C10.9077 10.0072 10.8455 10.033 10.7997 10.0788C10.7538 10.1247 10.728 10.1869 10.728 10.2518V11.8675L9.11253 11.8689C9.08042 11.869 9.04862 11.8753 9.01896 11.8876C8.9893 11.8999 8.96235 11.918 8.93966 11.9407C8.91697 11.9634 8.89897 11.9904 8.88671 12.0201C8.87444 12.0498 8.86814 12.0816 8.86816 12.1137L8.87002 14.1685C8.87013 14.2334 8.89595 14.2955 8.94183 14.3414C8.98771 14.3871 9.05002 14.4128 9.11478 14.4128L10.7279 14.4113V16.0245C10.7279 16.0893 10.7537 16.1516 10.7996 16.1974C10.8454 16.2433 10.9076 16.269 10.9725 16.269H13.0274C13.0923 16.269 13.1545 16.2433 13.2004 16.1974C13.2462 16.1516 13.272 16.0893 13.272 16.0245V14.409L14.8876 14.4075C14.9525 14.4074 15.0146 14.3816 15.0605 14.3357Z" fill="#52B9F3"/>
</svg>
