<svg width="225" height="170" viewBox="0 0 225 170" fill="none" xmlns="http://www.w3.org/2000/svg">
<g clip-path="url(#clip0_1107_4020)">
<mask id="mask0_1107_4020" style="mask-type:alpha" maskUnits="userSpaceOnUse" x="11" y="0" width="200" height="151">
<path opacity="0.6" d="M196.961 142.329C214.884 132.566 216.418 91.0523 192.705 68.3299C168.991 45.6076 173.553 26.5581 144.368 8.1195C115.182 -10.3191 69.5681 4.03259 59.5545 37.7597C49.5409 71.4868 7.57215 78.0923 11.2246 114.691C14.877 151.29 47.3956 156.748 81.1499 145.798C114.904 134.847 121.883 131.976 144.375 139.749C166.866 147.522 184.802 148.955 196.961 142.329Z" fill="url(#paint0_linear_1107_4020)"/>
</mask>
<g mask="url(#mask0_1107_4020)">
<path opacity="0.5" d="M215.869 97.3138L218.898 92.3923L80.3639 7.13888L78.3044 5.87152L75.2758 10.793L215.869 97.3138Z" fill="url(#paint1_linear_1107_4020)"/>
</g>
<path opacity="0.6" d="M196.961 142.329C214.884 132.566 216.418 91.0523 192.705 68.3299C168.991 45.6076 173.553 26.5581 144.368 8.1195C115.182 -10.3191 69.5681 4.03259 59.5545 37.7597C49.5409 71.4868 7.57215 78.0923 11.2246 114.691C14.877 151.29 47.3956 156.748 81.1499 145.798C114.904 134.847 121.883 131.976 144.375 139.749C166.866 147.522 184.802 148.955 196.961 142.329Z" fill="url(#paint2_linear_1107_4020)"/>
<path d="M127.273 57.9837H97.0561C96.9042 57.9819 96.7592 57.9203 96.6525 57.8123C96.5457 57.7043 96.4858 57.5585 96.4858 57.4066C96.4876 57.2559 96.5482 57.1119 96.6548 57.0053C96.7614 56.8988 96.9054 56.8381 97.0561 56.8364H127.273C127.425 56.8364 127.571 56.8962 127.679 57.003C127.787 57.1097 127.849 57.2548 127.85 57.4066C127.85 57.5597 127.79 57.7064 127.681 57.8147C127.573 57.9229 127.426 57.9837 127.273 57.9837Z" fill="url(#paint3_linear_1107_4020)"/>
<path d="M104.517 43.4691H99.9279V56.8432H104.517V43.4691Z" fill="url(#paint4_linear_1107_4020)"/>
<path d="M111.394 39.7217H106.805V56.8364H111.394V39.7217Z" fill="url(#paint5_linear_1107_4020)"/>
<path d="M118.278 28.4861H113.689V56.8364H118.278V28.4861Z" fill="url(#paint6_linear_1107_4020)"/>
<path d="M125.162 32.5187H120.573V56.8364H125.162V32.5187Z" fill="url(#paint7_linear_1107_4020)"/>
<path d="M97.2735 24.1616C97.4643 24.1616 97.6474 24.2374 97.7823 24.3723C97.9173 24.5073 97.9931 24.6903 97.9931 24.8812V57.1487C97.9931 57.3395 97.9173 57.5226 97.7823 57.6575C97.6474 57.7925 97.4643 57.8683 97.2735 57.8683H96.5538V24.8812C96.5556 24.6909 96.632 24.5089 96.7666 24.3743C96.9011 24.2397 97.0831 24.1633 97.2735 24.1616Z" fill="url(#paint8_linear_1107_4020)"/>
<path d="M181.048 93.0482C180.895 95.8711 179.849 98.5723 178.06 100.761C176.272 102.95 173.833 104.514 171.097 105.226C168.361 105.938 165.47 105.761 162.841 104.722C160.212 103.682 157.982 101.834 156.472 99.4433C155.477 97.8874 154.822 96.1382 154.551 94.3109C154.51 94.0462 154.476 93.7746 154.449 93.5031C153.859 86.8635 158.855 80.2648 165.434 79.1718C167.439 78.8298 169.495 78.9458 171.449 79.5112L167.735 92.2878L180.227 87.8819H180.308L180.362 88.0244C180.913 89.6392 181.145 91.3451 181.048 93.0482Z" fill="url(#paint9_linear_1107_4020)"/>
<path d="M182.976 85.2139L170.403 89.647L174.117 76.8432C176.153 77.4333 178.019 78.5005 179.559 79.9563C181.1 81.4122 182.272 83.2146 182.976 85.2139Z" fill="url(#paint10_linear_1107_4020)"/>
<path d="M139.677 161.602C140.355 163.303 140.665 165.129 140.586 166.959H128.312C124.185 166.959 123.329 166.585 123.492 165.995C123.655 165.404 133.723 164.121 134.422 161.602H139.677Z" fill="url(#paint11_linear_1107_4020)"/>
<path d="M129.398 102.797L133.777 161.602H140.505C140.505 161.602 140.369 134.216 142.141 120.713C143.913 107.21 145.678 104.474 144.857 98.2078L129.398 102.797Z" fill="url(#paint12_linear_1107_4020)"/>
<path d="M128.584 101.745L131.849 161.602H138.577C138.577 161.602 138.441 134.216 140.206 120.713C141.971 107.21 143.743 104.474 142.922 98.2078L128.584 101.745Z" fill="url(#paint13_linear_1107_4020)"/>
<path d="M145.352 113.747H123.064C122.648 113.747 122.311 114.085 122.311 114.501V128.425C122.311 128.841 122.648 129.179 123.064 129.179H145.352C145.768 129.179 146.106 128.841 146.106 128.425V114.501C146.106 114.085 145.768 113.747 145.352 113.747Z" fill="url(#paint14_linear_1107_4020)"/>
<path d="M136.35 111.738V113.775H135.868V112.301C135.868 112.121 135.797 111.949 135.669 111.821C135.542 111.694 135.369 111.623 135.189 111.623H130.532C130.352 111.623 130.179 111.694 130.052 111.821C129.925 111.949 129.853 112.121 129.853 112.301V113.775H129.371V111.738C129.371 111.558 129.443 111.385 129.57 111.258C129.697 111.131 129.87 111.059 130.05 111.059H135.671C135.851 111.059 136.024 111.131 136.151 111.258C136.279 111.385 136.35 111.558 136.35 111.738Z" fill="url(#paint15_linear_1107_4020)"/>
<path d="M114.49 84.3789C114.49 84.3789 114.538 83.6321 112.399 84.1141C110.261 84.5961 109.215 88.4793 111.503 88.5472C113.791 88.6151 114.49 87.1894 114.49 87.1894V84.3789Z" fill="url(#paint16_linear_1107_4020)"/>
<path d="M130.186 81.9145C130.186 81.9145 123.397 85.3972 121.992 85.9335C120.586 86.4698 114.49 87.9701 114.49 87.9701V83.5777C114.49 83.5777 121.184 81.1134 121.557 80.5771C121.931 80.0407 130.186 68.2485 130.186 68.2485V81.9145Z" fill="url(#paint17_linear_1107_4020)"/>
<path d="M130.193 48.8391C130.193 48.8391 127.823 48.8391 127.375 48.1602C126.927 47.4814 126.459 46.0218 129.663 45.2071C132.867 44.3924 137.178 41.8127 140.016 45.275C142.854 48.7373 138.774 58.0652 138.774 58.0652L130.193 48.8391Z" fill="url(#paint18_linear_1107_4020)"/>
<path d="M131.204 104.318L130.994 106.198L135.067 106.572L135.44 104.318H131.204Z" stroke="#1706F9" stroke-width="0.5" stroke-miterlimit="10"/>
<path d="M142.019 102.96C140.541 103.313 139.024 103.482 137.504 103.462C136.404 103.462 135.23 103.462 134.062 103.374C130.199 103.13 128.339 103.327 127.396 102.417C126.893 101.935 128.611 91.7448 128.258 84.5418C127.905 77.3388 128.801 73.1433 129.616 70.0679C130.131 68.4585 130.891 66.9381 131.87 65.5601L139.493 62.6002C139.493 62.6002 142.643 65.628 143.03 68.1399C143.852 73.4352 143.988 80.6314 143.913 85.5058C143.852 89.6606 145.318 97.5968 145.508 99.2125C145.698 100.828 145.936 101.792 142.019 102.96Z" fill="url(#paint19_linear_1107_4020)"/>
<path d="M140.206 88.8255C140.002 91.4596 138.326 99.8099 137.599 103.374C136.499 103.442 135.332 103.469 134.164 103.449L140.091 75.3157C140.091 75.3157 140.478 85.4514 140.206 88.8255Z" fill="url(#paint20_linear_1107_4020)"/>
<path d="M139.527 62.1724C139.527 62.1724 133.539 64.9966 133.831 63.3469C133.931 62.8312 133.931 62.3012 133.831 61.7855C133.727 61.2334 133.534 60.7016 133.261 60.2105C132.921 60.4684 132.54 60.668 132.134 60.8011C131.409 61.0575 130.611 61.0185 129.914 60.6925C128.183 59.8574 128.821 48.7305 128.821 48.7305C132.555 49.1786 133.519 48.0991 134.517 48.6287C135.515 49.1582 136.099 53.6932 136.907 53.571C137.715 53.4488 137.341 51.2288 138.21 50.9504C139.079 50.6721 139.419 52.6748 139.038 53.8357C138.658 54.9966 137.939 54.4263 137.939 54.4263C138.814 57.7393 139.527 62.1724 139.527 62.1724Z" fill="url(#paint21_linear_1107_4020)"/>
<path d="M136.099 57.7733C136.099 57.7733 135.42 60.4209 133.818 61.7855C133.713 61.2334 133.521 60.7016 133.248 60.2105C132.907 60.4684 132.526 60.668 132.121 60.8011C133.607 60.0218 134.952 58.9983 136.099 57.7733Z" fill="#F27968"/>
<path d="M140.172 63.5438C140.851 63.2315 139.738 60.8282 139.296 60.7536C138.855 60.6789 133.003 63.0414 132.304 63.1704C131.605 63.2994 130.783 66.85 130.783 66.85C130.783 66.85 138.02 64.5146 140.172 63.5438Z" fill="#F7F8F9"/>
<path d="M130.614 105.336L135.495 105.872C135.495 105.872 139.032 90.7603 139.622 87.8072C140.213 84.854 141.225 69.5384 137.64 68.6762C134.055 67.814 131.849 70.2308 132.548 77.2505C133.248 84.2702 133.295 86.5241 133.186 88.7237C133.078 90.9233 130.614 105.336 130.614 105.336Z" fill="url(#paint22_linear_1107_4020)"/>
<path d="M130.994 106.191C130.994 106.191 130.03 108.337 129.758 109.029C129.487 109.722 130.349 109.993 130.349 109.993C130.349 109.993 130.512 111.657 131.15 112.193C131.788 112.729 132.44 112.41 133.458 112.512C134.476 112.614 134.958 112.566 135.223 111.833C135.488 111.1 135.121 110.224 135.223 108.561C135.325 106.898 135.067 106.578 135.067 106.578L130.994 106.191Z" fill="url(#paint23_linear_1107_4020)"/>
<path d="M131.347 68.6626C131.347 68.6626 129.507 71.3782 129.161 77.3931C128.814 83.408 128.971 92.6205 128.706 93.6253C128.441 94.63 127.43 95.5533 126.948 95.5805C126.466 95.6076 126.316 93.7407 126.316 93.1365C126.316 92.0095 127.049 85.7162 127.246 80.4684C127.443 75.2207 128.971 69.0699 130.193 68.2145L131.347 68.6626Z" fill="url(#paint24_linear_1107_4020)"/>
<path d="M131.095 66.7617C130.125 67.074 129.195 69.4773 129.595 70.0679C129.996 70.6585 133.282 66.4901 132.311 66.4426C131.887 66.4569 131.472 66.5659 131.095 66.7617Z" fill="url(#paint25_linear_1107_4020)"/>
<path d="M138.136 161.602C138.814 163.303 139.124 165.129 139.045 166.959H126.757C122.63 166.959 121.774 166.585 121.937 165.995C122.1 165.404 132.168 164.121 132.867 161.602H138.136Z" fill="url(#paint26_linear_1107_4020)"/>
<path d="M109.453 88.9342C110.535 88.7697 111.607 88.543 112.664 88.2553C113.574 87.9294 115.237 86.5377 114.755 84.8608C114.273 83.184 111.754 84.7047 111.055 84.8608C110.256 85.1974 109.501 85.6306 108.808 86.1507C108.808 86.1507 108.163 88.4522 109.453 88.9342Z" fill="url(#paint27_linear_1107_4020)"/>
<path d="M94.6326 48.1195C95.7659 48.2103 96.8951 47.9003 97.8233 47.2437C98.1778 46.9445 98.4568 46.566 98.6377 46.1388C98.8187 45.7116 98.8964 45.2479 98.8647 44.785C98.8329 44.3222 98.6926 43.8734 98.4551 43.4749C98.2175 43.0765 97.8895 42.7396 97.4975 42.4915C95.678 41.4257 93.4784 42.444 90.0297 40.9912C86.581 39.5384 84.0283 39.5995 84.2456 43.4623C84.2456 43.4623 81.9917 43.3537 81.8287 46.945C81.6658 50.5363 83.974 55.3564 85.2639 57.3388L94.6326 48.1195Z" fill="url(#paint28_linear_1107_4020)"/>
<path d="M95.3046 92.6884C95.3046 92.6884 95.3046 112.783 93.6413 130.781C92.8267 139.647 92.1071 161.602 92.1071 161.602H85.549C85.549 161.602 84.1913 133.401 83.9129 128.052C83.234 114.066 79.1064 107.067 79.8396 93.9715L95.3046 92.6884Z" fill="url(#paint29_linear_1107_4020)"/>
<path d="M96.9 93.5031C96.9 93.7683 96.8864 94.0334 96.8593 94.2973C96.5334 97.3523 95.3589 99.5994 88.3325 99.7284C81.306 99.8574 77.6739 98.6015 77.1919 97.0468C76.7099 95.4922 77.8708 94.3313 78.3664 86.4358C78.862 78.5404 75.9564 74.3788 77.8844 68.6965C79.8124 63.0143 82.2836 61.0387 82.2836 61.0387C82.2836 61.0387 88.1763 64.0394 90.6407 65.112C93.105 66.1847 94.9244 70.4684 95.2503 79.6334C95.4608 85.5872 96.3569 88.9749 96.7303 91.5479C96.8363 92.1944 96.893 92.848 96.9 93.5031Z" fill="url(#paint30_linear_1107_4020)"/>
<path d="M96.9001 93.503C92.2972 94.3177 88.1832 93.9715 86.9951 93.1161C85.6374 92.1521 83.1934 90.5974 81.211 83.9511C80.0491 79.7242 79.631 75.3274 79.9754 70.9572L86.5403 85.6144L91.6319 87.4881L96.7032 91.5275C96.8193 92.18 96.8851 92.8405 96.9001 93.503Z" fill="#F28357"/>
<path d="M107.464 86.0421L108.55 85.9538C108.627 85.9468 108.704 85.9648 108.77 86.0051C108.836 86.0455 108.887 86.1061 108.916 86.1779C109.299 87.0492 109.476 87.997 109.432 88.9477C109.425 89.0223 109.395 89.0928 109.347 89.1499C109.298 89.2069 109.233 89.2477 109.161 89.2668L107.626 89.6877L107.464 86.0421Z" fill="url(#paint31_linear_1107_4020)"/>
<path d="M93.3291 59.1174C93.1804 59.3297 92.9718 59.4928 92.7299 59.5859C92.4881 59.679 92.224 59.6979 91.9713 59.6402L91.6998 59.5587C91.0649 59.3371 90.4692 59.0163 89.9347 58.6083C89.8034 59.2154 89.7082 59.8297 89.6495 60.4481C89.5671 61.3241 89.5671 62.206 89.6495 63.0821L84.3474 60.5091C84.7016 57.9847 85.237 55.489 85.9496 53.0414C85.9496 53.0414 85.3657 53.8493 84.8837 52.4032C84.4017 50.9572 84.6665 49.5044 85.7934 49.5044C86.9204 49.5044 86.4723 52.2199 87.1512 52.7223C87.8301 53.2247 88.0066 49.6673 88.9231 48.0584C89.8396 46.4494 91.2788 46.3476 92.2429 46.9857C93.2069 47.6239 94.0623 48.2213 95.3522 48.0584C95.2503 48.0991 95.5762 55.9063 93.3291 59.1174Z" fill="url(#paint32_linear_1107_4020)"/>
<path d="M91.659 65.8113C91.659 65.8113 91.2313 65.3836 91.0684 63.1365C91.0005 62.1725 90.4777 62.5458 87.2123 61.0455C83.9468 59.5452 83.9944 58.9002 83.5124 59.2193C83.0116 59.7615 82.5972 60.3774 82.2836 61.0455C84.8289 63.5818 88.11 65.2496 91.659 65.8113Z" fill="#F9F5F4"/>
<path d="M108.794 88.5744C108.78 87.8774 108.644 87.1882 108.394 86.5377C108.288 86.2597 108.094 86.024 107.841 85.867C107.588 85.7101 107.291 85.6404 106.995 85.6687C103.893 85.9878 94.1709 86.8704 91.659 85.5669C88.6583 84.0122 88.3868 81.3306 87.9591 76.1372C87.5314 70.9437 86.031 67.6714 84.2659 67.237C82.5008 66.8025 78.7466 67.8276 80.084 76.4019C81.4214 84.9763 85.7663 91.6225 89.3033 92.5323C92.3107 93.3062 104.239 90.7061 107.742 89.9118C108.043 89.8421 108.312 89.6716 108.503 89.4284C108.695 89.1851 108.797 88.8838 108.794 88.5744Z" fill="#F9F5F4"/>
<path d="M89.8803 58.6355C89.7491 59.2426 89.6538 59.8569 89.5952 60.4752C87.9387 58.907 87.4771 55.981 87.4771 55.981C88.1089 57.0055 88.9235 57.9052 89.8803 58.6355Z" fill="#EA8165"/>
<path d="M86.7303 161.602C86.7303 161.602 85.3318 163.103 85.4405 166.959H88.9775L89.4595 166.157L90.0501 166.959H96.9612C100.016 166.959 101.306 165.838 101.306 165.838C101.098 165.571 100.839 165.348 100.544 165.181C100.249 165.015 99.9246 164.908 99.5885 164.868C98.6244 164.868 93.1594 165.085 90.9123 161.602H86.7303Z" fill="url(#paint33_linear_1107_4020)"/>
<path d="M30.2402 106.864C31.0821 102.111 32.2769 97.4134 33.9402 97.3591C35.6034 97.3048 36.2755 101.602 37.9048 101.589C40.8037 101.548 41.9307 87.8683 44.2457 87.8479C46.5607 87.8275 48.2104 102.471 50.3217 102.376C51.9578 102.301 52.3991 93.4691 54.2864 93.3944C55.8342 93.3333 56.6286 99.2396 57.9863 99.2057C60.5593 99.1446 60.8988 77.8072 64.0624 77.5424C65.2504 77.4406 66.4588 80.3394 67.2328 82.5594" stroke="url(#paint34_linear_1107_4020)" stroke-width="1.5" stroke-miterlimit="10" stroke-linecap="round"/>
<path d="M67.5925 109.375H29.0861C28.7749 109.375 28.5226 109.628 28.5226 109.939V110C28.5226 110.311 28.7749 110.563 29.0861 110.563H67.5925C67.9037 110.563 68.156 110.311 68.156 110V109.939C68.156 109.628 67.9037 109.375 67.5925 109.375Z" fill="url(#paint35_linear_1107_4020)"/>
<path d="M50.6746 167.101C50.6746 167.101 49.0996 144.433 40.5795 139.314C32.0595 134.195 31.177 142.39 35.9292 150.319C43.3969 162.797 43.0779 167.101 43.0779 167.101H50.6746Z" fill="url(#paint36_linear_1107_4020)"/>
<path d="M42.9897 161.188C42.9897 161.188 35.5898 151.561 31.3943 152.471C27.1988 153.381 32.9829 167.101 32.9829 167.101H47.321L42.9897 161.188Z" fill="url(#paint37_linear_1107_4020)"/>
<path d="M31.401 167.101C31.401 167.101 28.3324 158.371 24.7004 158.371C21.0684 158.371 22.7724 167.101 22.7724 167.101H31.401Z" fill="url(#paint38_linear_1107_4020)"/>
<path d="M49.8804 167.101C49.8804 167.101 50.4439 154.881 53.621 149.179C56.7982 143.476 62.4126 145.927 60.6543 152.356C59.3594 157.21 58.3372 162.133 57.5925 167.101H49.8804Z" fill="url(#paint39_linear_1107_4020)"/>
<path d="M24.9156 162L26.9156 167" stroke="url(#paint40_linear_1107_4020)" stroke-miterlimit="10" stroke-linecap="round"/>
<path d="M31.9156 155C34.8427 158.821 37.5151 162.829 39.9156 167" stroke="url(#paint41_linear_1107_4020)" stroke-miterlimit="10" stroke-linecap="round"/>
<path d="M36.9156 143C36.9156 143 43.8458 152.219 47.9156 167" stroke="url(#paint42_linear_1107_4020)" stroke-miterlimit="10" stroke-linecap="round"/>
<path d="M56.9156 152C56.9156 152 53.0619 161.506 52.9156 168" stroke="url(#paint43_linear_1107_4020)" stroke-miterlimit="10" stroke-linecap="round"/>
<path d="M170.722 167.101C170.722 167.101 172.304 144.433 180.824 139.314C189.344 134.195 190.227 142.39 185.474 150.319C178.007 162.797 178.326 167.101 178.326 167.101H170.722Z" fill="url(#paint44_linear_1107_4020)"/>
<path d="M178.373 161.188C178.373 161.188 185.78 151.561 189.975 152.471C194.171 153.381 188.373 167.101 188.373 167.101H174.049L178.373 161.188Z" fill="url(#paint45_linear_1107_4020)"/>
<path d="M171.469 167.101C171.469 167.101 170.899 154.881 167.728 149.179C164.558 143.476 158.937 145.927 160.695 152.356C161.986 157.211 163.008 162.133 163.757 167.101H171.469Z" fill="url(#paint46_linear_1107_4020)"/>
<path d="M188.916 155C185.99 158.822 183.318 162.83 180.916 167" stroke="url(#paint47_linear_1107_4020)" stroke-miterlimit="10" stroke-linecap="round"/>
<path d="M183.916 143C183.916 143 177.616 152.219 173.916 167" stroke="url(#paint48_linear_1107_4020)" stroke-miterlimit="10" stroke-linecap="round"/>
<path d="M164.916 152C164.916 152 167.806 160.912 167.916 167" stroke="url(#paint49_linear_1107_4020)" stroke-miterlimit="10" stroke-linecap="round"/>
<path d="M113.317 158.321C113.318 158.659 113.219 158.99 113.032 159.271C112.845 159.552 112.579 159.772 112.267 159.902C111.955 160.032 111.612 160.066 111.28 160.001C110.949 159.936 110.644 159.774 110.405 159.535C110.166 159.297 110.003 158.993 109.936 158.661C109.87 158.33 109.903 157.986 110.033 157.674C110.162 157.362 110.38 157.095 110.661 156.907C110.942 156.72 111.272 156.619 111.61 156.619C112.062 156.619 112.495 156.798 112.815 157.117C113.135 157.436 113.316 157.869 113.317 158.321Z" fill="url(#paint50_linear_1107_4020)"/>
<path d="M192.955 43.0392C192.956 43.3334 192.87 43.6213 192.707 43.8663C192.544 44.1114 192.313 44.3025 192.041 44.4156C191.769 44.5287 191.47 44.5585 191.182 44.5014C190.893 44.4442 190.628 44.3026 190.42 44.0946C190.212 43.8866 190.07 43.6215 190.013 43.3329C189.956 43.0443 189.986 42.7452 190.099 42.4736C190.212 42.202 190.403 41.9701 190.648 41.8073C190.893 41.6444 191.181 41.5581 191.475 41.5591C191.868 41.5591 192.244 41.715 192.522 41.9926C192.799 42.2702 192.955 42.6467 192.955 43.0392Z" fill="url(#paint51_linear_1107_4020)"/>
<path d="M5.06289 36.1339C5.06289 36.3379 5.0024 36.5373 4.88906 36.7069C4.77573 36.8765 4.61463 37.0087 4.42616 37.0868C4.23769 37.1649 4.03031 37.1853 3.83022 37.1455C3.63014 37.1057 3.44635 37.0075 3.3021 36.8632C3.15785 36.719 3.05962 36.5352 3.01982 36.3351C2.98002 36.135 3.00045 35.9276 3.07852 35.7391C3.15658 35.5507 3.28879 35.3896 3.45841 35.2763C3.62803 35.1629 3.82744 35.1024 4.03144 35.1024C4.305 35.1024 4.56735 35.2111 4.76079 35.4045C4.95422 35.598 5.06289 35.8603 5.06289 36.1339Z" fill="url(#paint52_linear_1107_4020)"/>
<path d="M67.8292 85.4853C67.8292 85.7791 67.7421 86.0662 67.5789 86.3105C67.4157 86.5547 67.1837 86.7451 66.9123 86.8575C66.6409 86.9699 66.3423 86.9994 66.0542 86.942C65.766 86.8847 65.5014 86.7433 65.2937 86.5355C65.086 86.3278 64.9445 86.0632 64.8872 85.7751C64.8299 85.4869 64.8593 85.1883 64.9717 84.9169C65.0841 84.6455 65.2745 84.4135 65.5187 84.2503C65.763 84.0871 66.0502 84 66.3439 84C66.5392 83.9993 66.7326 84.0373 66.9131 84.1117C67.0936 84.1861 67.2576 84.2955 67.3957 84.4335C67.5338 84.5716 67.6431 84.7356 67.7175 84.9161C67.7919 85.0966 67.8299 85.2901 67.8292 85.4853Z" fill="url(#paint53_linear_1107_4020)"/>
<path d="M120.971 12.4853C120.971 12.779 120.883 13.0662 120.72 13.3105C120.557 13.5547 120.325 13.7451 120.054 13.8575C119.782 13.9699 119.484 13.9993 119.196 13.942C118.907 13.8847 118.643 13.7432 118.435 13.5355C118.227 13.3278 118.086 13.0632 118.029 12.775C117.971 12.4869 118.001 12.1883 118.113 11.9169C118.225 11.6455 118.416 11.4135 118.66 11.2503C118.904 11.0871 119.192 11 119.485 11C119.879 11 120.257 11.1565 120.536 11.435C120.814 11.7136 120.971 12.0913 120.971 12.4853Z" fill="url(#paint54_linear_1107_4020)"/>
<path d="M109.602 102.3C109.602 102.557 109.526 102.808 109.383 103.022C109.24 103.236 109.037 103.403 108.799 103.501C108.562 103.599 108.301 103.625 108.048 103.575C107.796 103.525 107.565 103.401 107.383 103.219C107.201 103.037 107.077 102.806 107.027 102.554C106.977 102.301 107.003 102.04 107.101 101.803C107.199 101.565 107.366 101.362 107.58 101.219C107.793 101.076 108.045 101 108.302 101C108.647 101 108.977 101.137 109.221 101.381C109.465 101.625 109.602 101.955 109.602 102.3Z" fill="url(#paint55_linear_1107_4020)"/>
<path d="M196.483 99.4902C197.614 99.4902 198.53 98.5736 198.53 97.4428C198.53 96.312 197.614 95.3954 196.483 95.3954C195.352 95.3954 194.436 96.312 194.436 97.4428C194.436 98.5736 195.352 99.4902 196.483 99.4902Z" fill="url(#paint56_linear_1107_4020)"/>
<path d="M17.2371 109.361C17.9549 109.361 18.5367 108.779 18.5367 108.062C18.5367 107.344 17.9549 106.762 17.2371 106.762C16.5194 106.762 15.9375 107.344 15.9375 108.062C15.9375 108.779 16.5194 109.361 17.2371 109.361Z" fill="url(#paint57_linear_1107_4020)"/>
<path d="M169.011 40.832H167.98V39.8263C167.988 39.726 167.976 39.6251 167.943 39.5298C167.911 39.4346 167.859 39.3472 167.791 39.2731C167.723 39.1989 167.64 39.1398 167.548 39.0993C167.456 39.0589 167.356 39.038 167.255 39.038C167.155 39.038 167.055 39.0589 166.963 39.0993C166.871 39.1398 166.788 39.1989 166.72 39.2731C166.652 39.3472 166.6 39.4346 166.567 39.5298C166.535 39.6251 166.522 39.726 166.531 39.8263V40.832H165.499C165.399 40.8235 165.298 40.836 165.203 40.8685C165.108 40.9011 165.02 40.9531 164.946 41.0212C164.872 41.0893 164.813 41.1721 164.772 41.2642C164.732 41.3564 164.711 41.4559 164.711 41.5566C164.711 41.6572 164.732 41.7568 164.772 41.8489C164.813 41.9411 164.872 42.0238 164.946 42.0919C165.02 42.1601 165.108 42.212 165.203 42.2446C165.298 42.2772 165.399 42.2896 165.499 42.2812H166.531V43.3126C166.546 43.4942 166.629 43.6635 166.763 43.7868C166.897 43.9101 167.073 43.9786 167.255 43.9786C167.438 43.9786 167.613 43.9101 167.747 43.7868C167.882 43.6635 167.965 43.4942 167.98 43.3126V42.2812H169.011C169.193 42.2658 169.362 42.1828 169.486 42.0487C169.609 41.9145 169.677 41.7388 169.677 41.5566C169.677 41.3743 169.609 41.1987 169.486 41.0645C169.362 40.9303 169.193 40.8473 169.011 40.832Z" fill="url(#paint58_linear_1107_4020)"/>
<path d="M168.552 123.977H167.521V122.946C167.506 122.764 167.423 122.595 167.288 122.471C167.154 122.348 166.979 122.28 166.796 122.28C166.614 122.28 166.439 122.348 166.304 122.471C166.17 122.595 166.087 122.764 166.072 122.946V123.977H165.04C164.849 123.977 164.665 124.053 164.53 124.189C164.394 124.324 164.318 124.508 164.318 124.699C164.318 124.891 164.394 125.074 164.53 125.21C164.665 125.345 164.849 125.421 165.04 125.421H166.072V126.453C166.063 126.553 166.076 126.654 166.108 126.749C166.141 126.844 166.193 126.932 166.261 127.006C166.329 127.08 166.412 127.139 166.504 127.18C166.596 127.22 166.696 127.241 166.796 127.241C166.897 127.241 166.997 127.22 167.089 127.18C167.181 127.139 167.264 127.08 167.332 127.006C167.4 126.932 167.452 126.844 167.484 126.749C167.517 126.654 167.529 126.553 167.521 126.453V125.421H168.552C168.744 125.421 168.928 125.345 169.063 125.21C169.198 125.074 169.274 124.891 169.274 124.699C169.274 124.508 169.198 124.324 169.063 124.189C168.928 124.053 168.744 123.977 168.552 123.977Z" fill="url(#paint59_linear_1107_4020)"/>
<path d="M19.0315 57.7277H18.0001V56.722C18.0001 56.5305 17.924 56.3469 17.7886 56.2115C17.6532 56.0761 17.4696 56 17.2781 56C17.0866 56 16.9029 56.0761 16.7675 56.2115C16.6321 56.3469 16.5561 56.5305 16.5561 56.722V57.7277H15.5246C15.343 57.743 15.1738 57.826 15.0504 57.9602C14.9271 58.0944 14.8586 58.27 14.8586 58.4523C14.8586 58.6345 14.9271 58.8101 15.0504 58.9443C15.1738 59.0785 15.343 59.1615 15.5246 59.1769H16.5561V60.2083C16.5561 60.3998 16.6321 60.5834 16.7675 60.7188C16.9029 60.8542 17.0866 60.9303 17.2781 60.9303C17.4696 60.9303 17.6532 60.8542 17.7886 60.7188C17.924 60.5834 18.0001 60.3998 18.0001 60.2083V59.1769H19.0315C19.2132 59.1615 19.3824 59.0785 19.5057 58.9443C19.6291 58.8101 19.6975 58.6345 19.6975 58.4523C19.6975 58.27 19.6291 58.0944 19.5057 57.9602C19.3824 57.826 19.2132 57.743 19.0315 57.7277Z" fill="url(#paint60_linear_1107_4020)"/>
<g clip-path="url(#clip1_1107_4020)">
<path d="M217.116 149.516C216.987 147.209 217.003 144.896 216.839 142.591C216.755 141.436 216.656 140.284 216.62 139.123C216.603 138.545 216.601 137.964 216.587 137.386C216.6 136.84 216.552 136.295 216.443 135.761C216.379 135.513 216.299 135.27 216.249 135.018C216.248 135.014 216.246 135.01 216.243 135.007C216.24 135.003 216.237 135.001 216.233 134.999C216.229 134.997 216.224 134.996 216.22 134.997C216.215 134.997 216.211 134.998 216.207 135C216.027 135.12 215.895 135.3 215.833 135.507C215.741 135.767 215.671 136.034 215.623 136.305C215.475 137.035 215.244 137.736 215.076 138.457C214.882 139.307 214.756 140.173 214.628 141.034C214.501 141.896 214.38 142.775 214.276 143.648C214.172 144.52 214.094 145.402 214.059 146.283C214.024 147.165 214.033 148.032 214.035 148.904C214.035 149.351 214.035 149.795 214.063 150.238C213.962 151.224 213.986 152.218 214.132 153.197C214.203 153.67 214.327 154.124 214.442 154.59C214.625 155.32 214.714 156.316 215.437 156.751C215.725 156.934 216.072 156.999 216.406 156.933C216.565 156.898 216.708 156.813 216.815 156.691C216.936 156.528 217.003 156.332 217.009 156.13C217.03 155.889 217.038 155.654 217.083 155.415C217.129 155.176 217.193 154.904 217.226 154.644C217.259 154.385 217.253 154.071 217.26 153.787C217.268 153.502 217.273 153.212 217.275 152.925C217.291 151.788 217.18 150.655 217.116 149.516Z" fill="url(#paint61_linear_1107_4020)"/>
<path d="M216.207 135.002C216.178 135.021 216.15 135.042 216.123 135.066C215.74 136.243 215.826 137.522 215.636 138.738C215.581 139.09 215.501 139.437 215.453 139.791C215.407 140.154 215.383 140.52 215.382 140.886C215.382 141.251 215.382 141.616 215.382 141.994C215.382 142.372 215.371 142.752 215.366 143.131C215.357 143.889 215.318 144.646 215.3 145.404C215.3 145.789 215.273 146.176 215.273 146.561C215.273 146.946 215.273 147.291 215.273 147.669C215.231 149.129 215.156 150.589 215.311 152.062C215.388 152.792 215.41 153.531 215.468 154.265C215.526 154.999 215.448 155.714 215.508 156.437C215.508 156.565 215.534 156.691 215.554 156.816L215.598 156.837C215.506 156.136 215.585 155.426 215.585 154.721C215.585 154.017 215.519 153.261 215.464 152.531C215.41 151.801 215.328 151.109 215.328 150.392C215.328 149.675 215.357 148.921 215.382 148.183C215.408 147.446 215.408 146.699 215.419 145.957C215.43 145.214 215.466 144.473 215.483 143.73C215.499 142.987 215.521 142.226 215.51 141.472C215.51 141.107 215.51 140.742 215.526 140.366C215.55 140.008 215.596 139.652 215.665 139.3C215.729 138.911 215.808 138.526 215.848 138.134C215.888 137.741 215.902 137.404 215.933 137.028C215.97 136.349 216.077 135.676 216.253 135.02C216.252 135.016 216.249 135.011 216.246 135.008C216.243 135.004 216.239 135.002 216.235 135C216.23 134.998 216.225 134.997 216.221 134.998C216.216 134.998 216.211 134.999 216.207 135.002Z" fill="url(#paint62_linear_1107_4020)"/>
<path d="M215.713 151.888C215.62 150.416 215.371 148.958 214.97 147.539C214.605 146.139 213.988 144.841 213.327 143.556C213.033 142.98 212.805 142.346 212.373 141.854C212.076 141.47 211.71 141.148 211.292 140.903C211.211 140.86 211.122 140.832 211.031 140.822C211.022 140.823 211.013 140.827 211.007 140.833C211.001 140.839 210.997 140.848 210.996 140.857C210.983 141.153 211.02 141.448 211.106 141.731C211.186 142.023 211.259 142.312 211.316 142.607C211.444 143.279 211.584 143.945 211.67 144.615C211.756 145.285 211.825 145.993 211.865 146.687C211.905 147.38 211.896 148.032 211.876 148.705C211.838 150.036 211.852 151.359 212.181 152.657C212.431 153.631 212.789 154.575 213.249 155.469C213.435 155.859 213.664 156.226 213.931 156.565V156.574C213.974 156.638 214.022 156.699 214.074 156.756C214.149 156.847 214.244 156.92 214.352 156.968C214.46 157.017 214.578 157.04 214.696 157.036C215.189 157.001 215.326 156.488 215.393 156.079C215.501 155.424 215.603 154.774 215.654 154.112C215.718 153.372 215.738 152.63 215.713 151.888Z" fill="url(#paint63_linear_1107_4020)"/>
<path d="M214.563 157.045C214.563 156.99 214.552 156.935 214.563 156.88C214.563 156.62 214.542 156.361 214.499 156.105C214.42 155.522 214.316 154.946 214.251 154.362C214.116 153.188 213.97 152.018 213.798 150.85C213.626 149.682 213.495 148.53 213.25 147.382C213.006 146.234 212.739 145.086 212.402 143.958C212.309 143.648 212.208 143.339 212.112 143.031C212.026 142.735 211.925 142.444 211.809 142.158C211.709 141.913 211.582 141.68 211.431 141.463C211.266 141.276 211.142 141.058 211.066 140.821H211.057C211.048 140.821 211.039 140.825 211.033 140.831C211.026 140.838 211.022 140.846 211.022 140.855C211.016 140.938 211.016 141.022 211.022 141.105C211.068 141.193 211.121 141.276 211.181 141.355C211.312 141.523 211.429 141.701 211.533 141.886C211.657 142.14 211.763 142.402 211.851 142.671C211.894 142.79 211.924 142.912 211.967 143.036C212.011 143.16 212.059 143.306 212.095 143.443C212.248 143.991 212.429 144.527 212.568 145.086C212.707 145.644 212.843 146.192 212.975 146.749C213.234 147.853 213.402 148.977 213.563 150.102C213.723 151.226 213.928 152.398 214.057 153.553C214.127 154.185 214.201 154.814 214.315 155.44C214.373 155.754 214.433 156.068 214.473 156.386C214.49 156.519 214.506 156.652 214.515 156.787C214.515 156.844 214.515 156.9 214.524 156.957C214.533 156.987 214.539 157.017 214.541 157.048L214.563 157.045Z" fill="url(#paint64_linear_1107_4020)"/>
<path d="M219.821 138.513C219.336 137.71 218.44 138.973 218.178 139.359C217.941 139.712 217.736 140.086 217.565 140.476C217.247 141.19 216.98 141.925 216.764 142.677C216.342 144.211 216.043 145.777 215.868 147.358C215.771 148.141 215.685 148.928 215.612 149.713C215.527 150.594 215.541 151.48 215.541 152.363C215.541 152.805 215.505 153.245 215.492 153.686C215.486 154.092 215.505 154.498 215.55 154.902C215.575 155.36 215.667 155.812 215.824 156.243C215.822 156.539 215.93 156.825 216.125 157.046C216.316 157.23 216.554 157.356 216.813 157.411C217.069 157.474 217.336 157.464 217.586 157.381C217.836 157.299 218.057 157.147 218.224 156.944C218.589 156.492 218.721 155.891 218.803 155.331C218.881 154.71 218.924 154.085 218.932 153.46C218.982 151.686 218.872 149.91 219.002 148.14C219.033 147.7 219.076 147.26 219.129 146.824C219.182 146.387 219.254 145.94 219.294 145.495C219.372 144.619 219.356 143.737 219.489 142.865C219.615 142.031 219.752 141.195 219.892 140.362C219.957 140.025 219.994 139.682 220.004 139.338C220.019 139.052 219.956 138.767 219.821 138.513Z" fill="url(#paint65_linear_1107_4020)"/>
<path d="M218.73 142.135C218.857 141.436 218.974 140.731 219.142 140.039C219.225 139.706 219.335 139.379 219.471 139.063C219.57 138.844 219.656 138.62 219.73 138.391C219.694 138.351 219.651 138.318 219.602 138.294C219.465 138.802 219.197 139.271 219.055 139.778C218.887 140.399 218.786 141.032 218.669 141.662C218.426 142.966 218.217 144.276 218.043 145.592C217.861 146.922 217.729 148.262 217.651 149.607C217.573 150.952 217.322 152.253 217.124 153.577C217.023 154.282 216.962 154.993 216.941 155.705C216.921 156.278 216.91 156.858 216.941 157.435L217.018 157.446C217.04 156.952 217.038 156.455 217.054 155.96C217.076 155.327 217.114 154.683 217.197 154.064C217.366 152.754 217.651 151.46 217.762 150.14C217.821 149.472 217.855 148.802 217.914 148.132C217.972 147.462 218.043 146.794 218.127 146.125C218.289 144.788 218.49 143.459 218.73 142.135Z" fill="url(#paint66_linear_1107_4020)"/>
<path d="M219.547 156.497C219.547 156.497 219.547 156.513 219.538 156.521C219.538 156.575 219.529 156.628 219.513 156.68C219.526 156.938 219.507 157.197 219.458 157.452C219.412 157.725 218.545 166.616 218.562 166.988C218.569 166.995 218.575 167.004 218.577 167.014C218.58 167.024 218.579 167.035 218.576 167.044C218.572 167.054 218.566 167.062 218.558 167.068C218.549 167.074 218.539 167.077 218.529 167.078C217.715 167.1 216.904 167.149 216.089 167.16C215.678 167.16 215.265 167.16 214.855 167.16C214.664 167.163 214.473 167.153 214.283 167.131C214.086 167.099 213.887 167.08 213.687 167.072C213.672 167.072 213.659 167.066 213.649 167.056C213.639 167.045 213.634 167.032 213.634 167.017C213.647 166.79 213.643 166.562 213.623 166.335C213.606 166.245 212.683 156.868 212.71 156.586C212.699 156.553 212.685 156.521 212.67 156.49C212.664 156.477 212.663 156.464 212.666 156.451C212.668 156.437 212.675 156.425 212.685 156.416C212.695 156.407 212.707 156.401 212.721 156.4C212.734 156.398 212.748 156.401 212.759 156.408C213.192 156.342 213.637 156.437 214.074 156.433C214.948 156.433 215.824 156.442 216.698 156.413H216.775C217.226 156.399 217.687 156.382 218.133 156.388C218.286 156.388 218.439 156.388 218.595 156.388C218.885 156.375 219.177 156.378 219.467 156.398C219.474 156.398 219.482 156.398 219.489 156.398C219.501 156.398 219.513 156.4 219.523 156.406C219.534 156.411 219.543 156.419 219.549 156.43C219.555 156.44 219.558 156.452 219.558 156.464C219.557 156.475 219.554 156.487 219.547 156.497Z" fill="url(#paint67_linear_1107_4020)"/>
<g style="mix-blend-mode:soft-light">
<path d="M218.602 156.388C218.578 156.917 218.513 157.444 218.407 157.963C218.206 158.996 217.978 160.021 217.784 161.055C217.602 162.047 217.363 163.028 217.29 164.039C217.289 164.05 217.285 164.061 217.277 164.069C217.269 164.077 217.259 164.083 217.248 164.084C217.237 164.085 217.225 164.083 217.216 164.076C217.206 164.07 217.2 164.061 217.197 164.05C217.197 164.062 217.197 164.073 217.197 164.084H217.187C217.156 163.509 217.122 162.933 217.072 162.358C216.905 160.387 216.609 158.404 216.707 156.42H216.784C217.235 156.406 217.697 156.389 218.142 156.395C218.293 156.395 218.447 156.391 218.602 156.388Z" fill="url(#paint68_linear_1107_4020)"/>
</g>
</g>
<path d="M223.313 170H1.6868C1.46528 170 1.24594 169.961 1.04129 169.884C0.836634 169.808 0.650688 169.696 0.494054 169.555C0.33742 169.413 0.213164 169.246 0.128394 169.061C0.0436243 168.877 0 168.679 0 168.479C0 168.28 0.0436243 168.082 0.128394 167.897C0.213164 167.713 0.33742 167.545 0.494054 167.404C0.650688 167.263 0.836634 167.151 1.04129 167.074C1.24594 166.998 1.46528 166.959 1.6868 166.959H223.313C223.535 166.959 223.754 166.998 223.959 167.074C224.163 167.151 224.349 167.263 224.506 167.404C224.663 167.545 224.787 167.713 224.872 167.897C224.956 168.082 225 168.28 225 168.479C225 168.679 224.956 168.877 224.872 169.061C224.787 169.246 224.663 169.413 224.506 169.555C224.349 169.696 224.163 169.808 223.959 169.884C223.754 169.961 223.535 170 223.313 170Z" fill="url(#paint69_linear_1107_4020)"/>
<path d="M62.378 36H46.622C45.7262 36 45 36.7262 45 37.622V50.0032C45 50.8991 45.7262 51.6253 46.622 51.6253H62.378C63.2738 51.6253 64 50.8991 64 50.0032V37.622C64 36.7262 63.2738 36 62.378 36Z" fill="url(#paint70_linear_1107_4020)" fill-opacity="0.8"/>
<path d="M54.4991 48.1562C56.898 48.1562 58.8427 46.2115 58.8427 43.8126C58.8427 41.4137 56.898 39.469 54.4991 39.469C52.1002 39.469 50.1555 41.4137 50.1555 43.8126C50.1555 46.2115 52.1002 48.1562 54.4991 48.1562Z" stroke="url(#paint71_linear_1107_4020)" stroke-miterlimit="10"/>
<path d="M54.5003 39.469C53.6391 39.469 52.7972 39.7244 52.0811 40.2029C51.365 40.6814 50.8069 41.3614 50.4773 42.1571C50.1478 42.9528 50.0615 43.8283 50.2295 44.673C50.3976 45.5177 50.8123 46.2936 51.4213 46.9026C52.0303 47.5116 52.8061 47.9263 53.6508 48.0943C54.4955 48.2623 55.3711 48.1761 56.1667 47.8465C56.9624 47.5169 57.6425 46.9588 58.121 46.2427C58.5994 45.5266 58.8548 44.6847 58.8548 43.8235" stroke="url(#paint72_linear_1107_4020)" stroke-width="1.7" stroke-miterlimit="10"/>
<path d="M60 36.334C60 37.0708 60.5973 37.668 61.334 37.668C62.0708 37.668 62.668 37.0708 62.668 36.334C62.668 35.5973 62.0708 35 61.334 35C60.5973 35 60 35.5973 60 36.334Z" fill="url(#paint73_linear_1107_4020)"/>
<path d="M145.197 26.0546C144.089 26.2035 143.044 26.6594 142.181 27.3708C141.319 28.0823 140.672 29.0209 140.314 30.0806C139.957 31.1402 139.903 32.2788 140.159 33.3675C140.414 34.4562 140.97 35.4517 141.761 36.2415L140.848 38.7314C140.83 38.7819 140.829 38.8368 140.845 38.888C140.861 38.9392 140.893 38.984 140.936 39.0156C140.979 39.0473 141.031 39.0642 141.085 39.0639C141.138 39.0636 141.19 39.046 141.233 39.0138L143.364 37.3783C144.205 37.7909 145.131 38.0006 146.067 37.9908C147.004 37.9809 147.925 37.7518 148.758 37.3216C149.59 36.8915 150.31 36.2723 150.859 35.5138C151.409 34.7553 151.773 33.8786 151.923 32.9539C152.073 32.0292 152.004 31.0823 151.721 30.1891C151.439 29.2959 150.952 28.4812 150.298 27.8104C149.644 27.1397 148.842 26.6315 147.956 26.3265C147.07 26.0216 146.126 25.9285 145.197 26.0546Z" fill="url(#paint74_linear_1107_4020)"/>
<path d="M143.921 31.9033C143.921 32.0759 143.87 32.2447 143.774 32.3882C143.678 32.5317 143.542 32.6436 143.382 32.7096C143.223 32.7757 143.047 32.793 142.878 32.7593C142.709 32.7256 142.553 32.6425 142.431 32.5205C142.309 32.3984 142.226 32.2429 142.192 32.0736C142.159 31.9043 142.176 31.7288 142.242 31.5693C142.308 31.4099 142.42 31.2736 142.564 31.1777C142.707 31.0818 142.876 31.0306 143.048 31.0306C143.28 31.0306 143.502 31.1225 143.666 31.2862C143.829 31.4499 143.921 31.6719 143.921 31.9033Z" fill="white"/>
<path d="M145.997 32.7761C145.515 32.7761 145.124 32.3853 145.124 31.9033C145.124 31.4213 145.515 31.0306 145.997 31.0306C146.479 31.0306 146.87 31.4213 146.87 31.9033C146.87 32.3853 146.479 32.7761 145.997 32.7761Z" fill="white"/>
<path d="M149.818 31.9033C149.818 32.0759 149.767 32.2447 149.671 32.3882C149.575 32.5317 149.438 32.6436 149.279 32.7096C149.12 32.7757 148.944 32.793 148.775 32.7593C148.605 32.7256 148.45 32.6425 148.328 32.5205C148.206 32.3984 148.123 32.2429 148.089 32.0736C148.055 31.9043 148.073 31.7288 148.139 31.5693C148.205 31.4099 148.317 31.2736 148.46 31.1777C148.604 31.0818 148.772 31.0306 148.945 31.0306C149.176 31.0315 149.398 31.1238 149.561 31.2873C149.725 31.4507 149.817 31.6722 149.818 31.9033Z" fill="white"/>
</g>
<defs>
<linearGradient id="paint0_linear_1107_4020" x1="86.2482" y1="36.3332" x2="698.089" y2="630.419" gradientUnits="userSpaceOnUse">
<stop stop-color="#CCD0FF"/>
<stop offset="0.5" stop-color="#4467FF"/>
<stop offset="1" stop-color="#040768"/>
</linearGradient>
<linearGradient id="paint1_linear_1107_4020" x1="148.601" y1="49.1319" x2="145.572" y2="54.0534" gradientUnits="userSpaceOnUse">
<stop stop-color="#6342FF"/>
<stop offset="1" stop-color="#8B73FF"/>
</linearGradient>
<linearGradient id="paint2_linear_1107_4020" x1="86.2482" y1="36.3332" x2="698.089" y2="630.419" gradientUnits="userSpaceOnUse">
<stop stop-color="#CCD0FF"/>
<stop offset="0.5" stop-color="#4467FF"/>
<stop offset="1" stop-color="#040768"/>
</linearGradient>
<linearGradient id="paint3_linear_1107_4020" x1="112.196" y1="56.5961" x2="112.162" y2="58.3664" gradientUnits="userSpaceOnUse">
<stop stop-color="#FDAE8F"/>
<stop offset="1" stop-color="#FD1C68"/>
</linearGradient>
<linearGradient id="paint4_linear_1107_4020" x1="102.222" y1="43.4691" x2="102.222" y2="56.8432" gradientUnits="userSpaceOnUse">
<stop stop-color="#6342FF"/>
<stop offset="1" stop-color="#8B73FF"/>
</linearGradient>
<linearGradient id="paint5_linear_1107_4020" x1="109.1" y1="39.7217" x2="109.1" y2="56.8364" gradientUnits="userSpaceOnUse">
<stop stop-color="#6342FF"/>
<stop offset="1" stop-color="#BA27FF"/>
</linearGradient>
<linearGradient id="paint6_linear_1107_4020" x1="115.984" y1="28.4861" x2="115.984" y2="56.8364" gradientUnits="userSpaceOnUse">
<stop stop-color="#6342FF"/>
<stop offset="1" stop-color="#8B73FF"/>
</linearGradient>
<linearGradient id="paint7_linear_1107_4020" x1="122.867" y1="32.5187" x2="122.867" y2="56.8364" gradientUnits="userSpaceOnUse">
<stop stop-color="#6342FF"/>
<stop offset="1" stop-color="#BA27FF"/>
</linearGradient>
<linearGradient id="paint8_linear_1107_4020" x1="97.2747" y1="17.1033" x2="93.0653" y2="17.4461" gradientUnits="userSpaceOnUse">
<stop stop-color="#FDAE8F"/>
<stop offset="1" stop-color="#FD1C68"/>
</linearGradient>
<linearGradient id="paint9_linear_1107_4020" x1="167.736" y1="78.9798" x2="167.736" y2="105.655" gradientUnits="userSpaceOnUse">
<stop stop-color="#6342FF"/>
<stop offset="1" stop-color="#BA27FF"/>
</linearGradient>
<linearGradient id="paint10_linear_1107_4020" x1="176.69" y1="76.8432" x2="176.69" y2="89.647" gradientUnits="userSpaceOnUse">
<stop stop-color="#6342FF"/>
<stop offset="1" stop-color="#8B73FF"/>
</linearGradient>
<linearGradient id="paint11_linear_1107_4020" x1="134.307" y1="164.284" x2="151.435" y2="164.284" gradientUnits="userSpaceOnUse">
<stop stop-color="#A5683A"/>
<stop offset="1" stop-color="#C67842"/>
</linearGradient>
<linearGradient id="paint12_linear_1107_4020" x1="129.398" y1="129.905" x2="145.074" y2="129.905" gradientUnits="userSpaceOnUse">
<stop stop-color="#433E7F"/>
<stop offset="1" stop-color="#5553A0"/>
</linearGradient>
<linearGradient id="paint13_linear_1107_4020" x1="128.584" y1="129.905" x2="143.139" y2="129.905" gradientUnits="userSpaceOnUse">
<stop stop-color="#4F4D99"/>
<stop offset="1" stop-color="#6262BF"/>
</linearGradient>
<linearGradient id="paint14_linear_1107_4020" x1="134.208" y1="113.747" x2="134.208" y2="129.179" gradientUnits="userSpaceOnUse">
<stop stop-color="#6342FF"/>
<stop offset="1" stop-color="#8B73FF"/>
</linearGradient>
<linearGradient id="paint15_linear_1107_4020" x1="132.861" y1="111.059" x2="132.861" y2="113.775" gradientUnits="userSpaceOnUse">
<stop stop-color="#6342FF"/>
<stop offset="1" stop-color="#8B73FF"/>
</linearGradient>
<linearGradient id="paint16_linear_1107_4020" x1="110.213" y1="86.2526" x2="114.49" y2="86.2526" gradientUnits="userSpaceOnUse">
<stop stop-color="#FF8E7B"/>
<stop offset="1" stop-color="#FFBD7D"/>
</linearGradient>
<linearGradient id="paint17_linear_1107_4020" x1="124.972" y1="77.4813" x2="112.297" y2="81.8941" gradientUnits="userSpaceOnUse">
<stop stop-color="#4F4D99"/>
<stop offset="1" stop-color="#6262BF"/>
</linearGradient>
<linearGradient id="paint18_linear_1107_4020" x1="137.049" y1="58.5608" x2="132.365" y2="41.48" gradientUnits="userSpaceOnUse">
<stop stop-color="#543231"/>
<stop offset="1" stop-color="#8C4A46"/>
</linearGradient>
<linearGradient id="paint19_linear_1107_4020" x1="125.922" y1="109.552" x2="141.897" y2="76.2254" gradientUnits="userSpaceOnUse">
<stop stop-color="#4F4D99"/>
<stop offset="1" stop-color="#6262BF"/>
</linearGradient>
<linearGradient id="paint20_linear_1107_4020" x1="134.164" y1="89.389" x2="140.301" y2="89.389" gradientUnits="userSpaceOnUse">
<stop stop-color="#433E7F"/>
<stop offset="1" stop-color="#443F81" stop-opacity="0"/>
</linearGradient>
<linearGradient id="paint21_linear_1107_4020" x1="139.629" y1="64.0665" x2="132.379" y2="53.0482" gradientUnits="userSpaceOnUse">
<stop stop-color="#FF8E7B"/>
<stop offset="1" stop-color="#FFBD7D"/>
</linearGradient>
<linearGradient id="paint22_linear_1107_4020" x1="130.614" y1="87.1894" x2="140.22" y2="87.1894" gradientUnits="userSpaceOnUse">
<stop stop-color="#4F4D99"/>
<stop offset="1" stop-color="#6262BF"/>
</linearGradient>
<linearGradient id="paint23_linear_1107_4020" x1="129.711" y1="109.375" x2="135.325" y2="109.375" gradientUnits="userSpaceOnUse">
<stop stop-color="#FF8E7B"/>
<stop offset="1" stop-color="#FFBD7D"/>
</linearGradient>
<linearGradient id="paint24_linear_1107_4020" x1="126.289" y1="81.9009" x2="131.32" y2="81.9009" gradientUnits="userSpaceOnUse">
<stop stop-color="#D32A43"/>
<stop offset="1" stop-color="#E82D3F"/>
</linearGradient>
<linearGradient id="paint25_linear_1107_4020" x1="129.5" y1="68.2756" x2="132.474" y2="68.2756" gradientUnits="userSpaceOnUse">
<stop stop-color="#D32A43"/>
<stop offset="1" stop-color="#E82D3F"/>
</linearGradient>
<linearGradient id="paint26_linear_1107_4020" x1="121.917" y1="164.284" x2="139.045" y2="164.284" gradientUnits="userSpaceOnUse">
<stop stop-color="#A5683A"/>
<stop offset="1" stop-color="#C67842"/>
</linearGradient>
<linearGradient id="paint27_linear_1107_4020" x1="108.645" y1="86.5105" x2="114.843" y2="86.5105" gradientUnits="userSpaceOnUse">
<stop stop-color="#F7A279"/>
<stop offset="1" stop-color="#FFC785"/>
</linearGradient>
<linearGradient id="paint28_linear_1107_4020" x1="81.8423" y1="48.7644" x2="98.8484" y2="48.7644" gradientUnits="userSpaceOnUse">
<stop stop-color="#543231"/>
<stop offset="1" stop-color="#8C4A46"/>
</linearGradient>
<linearGradient id="paint29_linear_1107_4020" x1="79.7785" y1="127.142" x2="95.3046" y2="127.142" gradientUnits="userSpaceOnUse">
<stop stop-color="#A5683A"/>
<stop offset="1" stop-color="#C67842"/>
</linearGradient>
<linearGradient id="paint30_linear_1107_4020" x1="75.0399" y1="103.503" x2="94.8701" y2="68.3842" gradientUnits="userSpaceOnUse">
<stop stop-color="#F78146"/>
<stop offset="1" stop-color="#F4CE47"/>
</linearGradient>
<linearGradient id="paint31_linear_1107_4020" x1="107.464" y1="87.8208" x2="109.446" y2="87.8208" gradientUnits="userSpaceOnUse">
<stop stop-color="#F78146"/>
<stop offset="1" stop-color="#F4CE47"/>
</linearGradient>
<linearGradient id="paint32_linear_1107_4020" x1="84.2659" y1="54.8812" x2="95.2639" y2="54.8812" gradientUnits="userSpaceOnUse">
<stop stop-color="#F7A279"/>
<stop offset="1" stop-color="#FFC785"/>
</linearGradient>
<linearGradient id="paint33_linear_1107_4020" x1="85.4337" y1="164.284" x2="101.306" y2="164.284" gradientUnits="userSpaceOnUse">
<stop stop-color="#7E3C4C"/>
<stop offset="1" stop-color="#AE5355"/>
</linearGradient>
<linearGradient id="paint34_linear_1107_4020" x1="48.7693" y1="71.3994" x2="32.7285" y2="109.996" gradientUnits="userSpaceOnUse">
<stop stop-color="#6342FF"/>
<stop offset="1" stop-color="#FF2770"/>
</linearGradient>
<linearGradient id="paint35_linear_1107_4020" x1="48.3745" y1="109.127" x2="48.3457" y2="110.96" gradientUnits="userSpaceOnUse">
<stop stop-color="#6342FF"/>
<stop offset="1" stop-color="#FF2770"/>
</linearGradient>
<linearGradient id="paint36_linear_1107_4020" x1="40.5634" y1="131.595" x2="56.3433" y2="163.951" gradientUnits="userSpaceOnUse">
<stop stop-color="white"/>
<stop offset="1" stop-color="#FD1C68"/>
</linearGradient>
<linearGradient id="paint37_linear_1107_4020" x1="37.3032" y1="149.346" x2="41.9517" y2="168.23" gradientUnits="userSpaceOnUse">
<stop stop-color="white"/>
<stop offset="1" stop-color="#FD1C68"/>
</linearGradient>
<linearGradient id="paint38_linear_1107_4020" x1="26.2191" y1="156.549" x2="29.336" y2="167.571" gradientUnits="userSpaceOnUse">
<stop stop-color="white"/>
<stop offset="1" stop-color="#FD1C68"/>
</linearGradient>
<linearGradient id="paint39_linear_1107_4020" x1="54.6123" y1="141.572" x2="66.8439" y2="163.567" gradientUnits="userSpaceOnUse">
<stop stop-color="white"/>
<stop offset="1" stop-color="#FD1C68"/>
</linearGradient>
<linearGradient id="paint40_linear_1107_4020" x1="25.9156" y1="162" x2="25.9156" y2="167" gradientUnits="userSpaceOnUse">
<stop stop-color="#FFF5F9"/>
<stop offset="1" stop-color="#FF679A"/>
</linearGradient>
<linearGradient id="paint41_linear_1107_4020" x1="35.9156" y1="155" x2="35.9156" y2="167" gradientUnits="userSpaceOnUse">
<stop stop-color="#FFF5F9"/>
<stop offset="1" stop-color="#FF679A"/>
</linearGradient>
<linearGradient id="paint42_linear_1107_4020" x1="42.4156" y1="143" x2="42.4156" y2="167" gradientUnits="userSpaceOnUse">
<stop stop-color="#FFF5F9"/>
<stop offset="1" stop-color="#FF679A"/>
</linearGradient>
<linearGradient id="paint43_linear_1107_4020" x1="54.9156" y1="152" x2="54.9156" y2="168" gradientUnits="userSpaceOnUse">
<stop stop-color="#FFF5F9"/>
<stop offset="1" stop-color="#FF679A"/>
</linearGradient>
<linearGradient id="paint44_linear_1107_4020" x1="178.23" y1="131.595" x2="194.006" y2="163.956" gradientUnits="userSpaceOnUse">
<stop stop-color="white"/>
<stop offset="1" stop-color="#FD1C68"/>
</linearGradient>
<linearGradient id="paint45_linear_1107_4020" x1="181.483" y1="149.346" x2="186.132" y2="168.23" gradientUnits="userSpaceOnUse">
<stop stop-color="white"/>
<stop offset="1" stop-color="#FD1C68"/>
</linearGradient>
<linearGradient id="paint46_linear_1107_4020" x1="165.094" y1="141.572" x2="177.325" y2="163.567" gradientUnits="userSpaceOnUse">
<stop stop-color="white"/>
<stop offset="1" stop-color="#FD1C68"/>
</linearGradient>
<linearGradient id="paint47_linear_1107_4020" x1="184.916" y1="155" x2="184.916" y2="167" gradientUnits="userSpaceOnUse">
<stop stop-color="#FFF5F9"/>
<stop offset="1" stop-color="#FF679A"/>
</linearGradient>
<linearGradient id="paint48_linear_1107_4020" x1="178.916" y1="143" x2="178.916" y2="167" gradientUnits="userSpaceOnUse">
<stop stop-color="#FFF5F9"/>
<stop offset="1" stop-color="#FF679A"/>
</linearGradient>
<linearGradient id="paint49_linear_1107_4020" x1="166.416" y1="152" x2="166.416" y2="167" gradientUnits="userSpaceOnUse">
<stop stop-color="#FFF5F9"/>
<stop offset="1" stop-color="#FF679A"/>
</linearGradient>
<linearGradient id="paint50_linear_1107_4020" x1="111.61" y1="156.619" x2="111.61" y2="160.033" gradientUnits="userSpaceOnUse">
<stop stop-color="#6342FF"/>
<stop offset="1" stop-color="#8B73FF"/>
</linearGradient>
<linearGradient id="paint51_linear_1107_4020" x1="191.47" y1="41.5591" x2="191.47" y2="44.5296" gradientUnits="userSpaceOnUse">
<stop stop-color="#6342FF"/>
<stop offset="1" stop-color="#8B73FF"/>
</linearGradient>
<linearGradient id="paint52_linear_1107_4020" x1="4.03144" y1="35.1024" x2="4.03144" y2="37.1653" gradientUnits="userSpaceOnUse">
<stop stop-color="#6342FF"/>
<stop offset="1" stop-color="#8B73FF"/>
</linearGradient>
<linearGradient id="paint53_linear_1107_4020" x1="66.3439" y1="84" x2="66.3439" y2="86.9706" gradientUnits="userSpaceOnUse">
<stop stop-color="#6342FF"/>
<stop offset="1" stop-color="#8B73FF"/>
</linearGradient>
<linearGradient id="paint54_linear_1107_4020" x1="119.485" y1="11" x2="119.485" y2="13.9706" gradientUnits="userSpaceOnUse">
<stop stop-color="#6342FF"/>
<stop offset="1" stop-color="#8B73FF"/>
</linearGradient>
<linearGradient id="paint55_linear_1107_4020" x1="108.302" y1="101" x2="108.302" y2="103.6" gradientUnits="userSpaceOnUse">
<stop stop-color="#6342FF"/>
<stop offset="1" stop-color="#8B73FF"/>
</linearGradient>
<linearGradient id="paint56_linear_1107_4020" x1="196.483" y1="95.3954" x2="196.483" y2="99.4902" gradientUnits="userSpaceOnUse">
<stop stop-color="#6342FF"/>
<stop offset="1" stop-color="#8B73FF"/>
</linearGradient>
<linearGradient id="paint57_linear_1107_4020" x1="17.2371" y1="106.762" x2="17.2371" y2="109.361" gradientUnits="userSpaceOnUse">
<stop stop-color="#6342FF"/>
<stop offset="1" stop-color="#8B73FF"/>
</linearGradient>
<linearGradient id="paint58_linear_1107_4020" x1="167.166" y1="34.0992" x2="169.083" y2="34.2953" gradientUnits="userSpaceOnUse">
<stop stop-color="#6342FF"/>
<stop offset="1" stop-color="#FF2770" stop-opacity="0.62"/>
</linearGradient>
<linearGradient id="paint59_linear_1107_4020" x1="166.768" y1="117.32" x2="168.681" y2="117.515" gradientUnits="userSpaceOnUse">
<stop stop-color="#6342FF"/>
<stop offset="1" stop-color="#FF2770" stop-opacity="0.62"/>
</linearGradient>
<linearGradient id="paint60_linear_1107_4020" x1="17.2506" y1="51.0716" x2="19.119" y2="51.2582" gradientUnits="userSpaceOnUse">
<stop stop-color="#6342FF"/>
<stop offset="1" stop-color="#FF2770" stop-opacity="0.62"/>
</linearGradient>
<linearGradient id="paint61_linear_1107_4020" x1="215.5" y1="119.5" x2="232.276" y2="128.38" gradientUnits="userSpaceOnUse">
<stop stop-color="white"/>
<stop offset="1" stop-color="#FD1C68"/>
</linearGradient>
<linearGradient id="paint62_linear_1107_4020" x1="215.735" y1="134.998" x2="215.735" y2="156.837" gradientUnits="userSpaceOnUse">
<stop stop-color="#FFF5F9"/>
<stop offset="1" stop-color="#FF679A"/>
</linearGradient>
<linearGradient id="paint63_linear_1107_4020" x1="213.358" y1="140.822" x2="213.358" y2="157.036" gradientUnits="userSpaceOnUse">
<stop stop-color="#6342FF"/>
<stop offset="1" stop-color="#BA27FF"/>
</linearGradient>
<linearGradient id="paint64_linear_1107_4020" x1="212.79" y1="140.821" x2="212.79" y2="157.048" gradientUnits="userSpaceOnUse">
<stop stop-color="#FFF5F9"/>
<stop offset="1" stop-color="#FF679A"/>
</linearGradient>
<linearGradient id="paint65_linear_1107_4020" x1="217.748" y1="138.251" x2="217.748" y2="157.452" gradientUnits="userSpaceOnUse">
<stop stop-color="#6342FF"/>
<stop offset="1" stop-color="#BA27FF"/>
</linearGradient>
<linearGradient id="paint66_linear_1107_4020" x1="218.326" y1="138.294" x2="218.326" y2="157.446" gradientUnits="userSpaceOnUse">
<stop stop-color="#FFF5F9"/>
<stop offset="1" stop-color="#FF679A"/>
</linearGradient>
<linearGradient id="paint67_linear_1107_4020" x1="216.111" y1="156.38" x2="216.111" y2="167.16" gradientUnits="userSpaceOnUse">
<stop stop-color="#6342FF"/>
<stop offset="1" stop-color="#BA27FF"/>
</linearGradient>
<linearGradient id="paint68_linear_1107_4020" x1="217.41" y1="158.241" x2="228.449" y2="160.257" gradientUnits="userSpaceOnUse">
<stop stop-color="#CCD0FF"/>
<stop offset="0.5" stop-color="#4467FF"/>
<stop offset="1" stop-color="#040768"/>
</linearGradient>
<linearGradient id="paint69_linear_1107_4020" x1="112.5" y1="166.959" x2="112.5" y2="170" gradientUnits="userSpaceOnUse">
<stop stop-color="#6342FF"/>
<stop offset="1" stop-color="#BA27FF"/>
</linearGradient>
<linearGradient id="paint70_linear_1107_4020" x1="54.5" y1="36" x2="54.5" y2="51.6253" gradientUnits="userSpaceOnUse">
<stop stop-color="#FD1C68" stop-opacity="0.36"/>
<stop offset="0.489583" stop-color="#FD1C68" stop-opacity="0.36"/>
<stop offset="1" stop-color="#FD1C68" stop-opacity="0.36"/>
</linearGradient>
<linearGradient id="paint71_linear_1107_4020" x1="58.8427" y1="43.8126" x2="50.155" y2="43.7841" gradientUnits="userSpaceOnUse">
<stop stop-color="white"/>
<stop offset="1" stop-color="#E7F3FF"/>
</linearGradient>
<linearGradient id="paint72_linear_1107_4020" x1="54.5081" y1="37.6454" x2="48.9797" y2="48.1899" gradientUnits="userSpaceOnUse">
<stop stop-color="#FDAE8F"/>
<stop offset="1" stop-color="#FD1C68"/>
</linearGradient>
<linearGradient id="paint73_linear_1107_4020" x1="61.334" y1="35" x2="61.334" y2="37.668" gradientUnits="userSpaceOnUse">
<stop stop-color="#6342FF"/>
<stop offset="1" stop-color="#8B73FF"/>
</linearGradient>
<linearGradient id="paint74_linear_1107_4020" x1="145.989" y1="23.2644" x2="154.671" y2="38.4745" gradientUnits="userSpaceOnUse">
<stop stop-color="#FDAE8F"/>
<stop offset="1" stop-color="#FD1C68"/>
</linearGradient>
<clipPath id="clip0_1107_4020">
<rect width="225" height="170" fill="white"/>
</clipPath>
<clipPath id="clip1_1107_4020">
<rect width="9" height="32.1689" fill="white" transform="translate(211 135)"/>
</clipPath>
</defs>
</svg>
