<?xml version="1.0" encoding="UTF-8"?> <svg xmlns="http://www.w3.org/2000/svg" id="Full_Color_Logo" data-name="Full Color Logo" width="139.61" height="50" viewBox="0 0 139.61 50"><path id="Path_1" data-name="Path 1" d="M.555,101.475H.873a2.382,2.382,0,0,0,.284.751,1.151,1.151,0,0,0,.975.576.7.7,0,0,0,.758-.67c0-.332-.244-.582-.832-.852a3.6,3.6,0,0,1-1.164-.7,1.231,1.231,0,0,1-.332-.852,1.274,1.274,0,0,1,1.326-1.266,1.369,1.369,0,0,1,.995.42.622.622,0,0,0,.128-.338h.3v1.279H3.025c-.169-.65-.575-1.042-1.076-1.042a.585.585,0,0,0-.643.575c0,.345.23.562.907.859a3.411,3.411,0,0,1,1.116.643,1.327,1.327,0,0,1,.372.927,1.384,1.384,0,0,1-1.468,1.36,1.608,1.608,0,0,1-1.225-.541,1.205,1.205,0,0,0-.135.385H.555Z" transform="translate(-0.34 -60.275)" fill="#1c3a34"></path><path id="Path_2" data-name="Path 2" d="M19.828,100.806a2.318,2.318,0,0,1-2.5,2.335,2.316,2.316,0,0,1-2.5-2.348,2.348,2.348,0,0,1,.744-1.726,2.69,2.69,0,0,1,1.8-.609,2.327,2.327,0,0,1,2.456,2.348m-3.62-1.272a3.244,3.244,0,0,0-.2,1.265,3.128,3.128,0,0,0,.2,1.266,1.229,1.229,0,0,0,2.247,0,3.213,3.213,0,0,0,.2-1.246,3.148,3.148,0,0,0-.2-1.286,1.229,1.229,0,0,0-2.247,0" transform="translate(-9.078 -60.276)" fill="#1c3a34"></path><path id="Path_3" data-name="Path 3" d="M37.778,103.181h-4.02v-.3h.088c.433,0,.555-.156.555-.7V99.655c-.007-.562-.115-.7-.568-.69h-.074v-.3h2.335v.3h-.128c-.447-.007-.555.129-.562.69v2.5c-.014.589.088.69.67.7h.176c.711,0,1.042-.291,1.258-1.123H37.8Z" transform="translate(-20.666 -60.404)" fill="#1c3a34"></path><path id="Path_4" data-name="Path 4" d="M54.182,98.667v.3h-.047c-.406.047-.576.264-.562.7v1.59a2.324,2.324,0,0,1-.149,1.049,1.76,1.76,0,0,1-1.753.961,1.867,1.867,0,0,1-1.644-.785,1.712,1.712,0,0,1-.217-.893V99.655c-.007-.562-.115-.7-.562-.69h-.068v-.3h2.274v.3h-.081c-.446-.007-.555.129-.562.69v1.664a2.031,2.031,0,0,0,.169,1.063,1.094,1.094,0,0,0,.975.5,1.252,1.252,0,0,0,1.225-.833c.047-.142.047-.142.054-.805V99.723c.007-.515-.183-.745-.629-.758h-.041v-.3Z" transform="translate(-30.108 -60.404)" fill="#1c3a34"></path><path id="Path_5" data-name="Path 5" d="M67.886,99.885l.007-1.218h4.466l.007,1.218h-.3c-.169-.751-.332-.9-.947-.9h-.5v3.187c0,.548.129.717.555.711h.149v.3H68.914v-.3h.149c.426.007.555-.162.555-.711V98.985h-.48c-.677,0-.819.142-.954.9Z" transform="translate(-41.559 -60.404)" fill="#1c3a34"></path><path id="Path_6" data-name="Path 6" d="M85.351,98.667h2.274v.3h-.081c-.439-.007-.548.129-.555.69v2.517c0,.548.122.711.548.711h.088v.3H85.351v-.3h.081c.427,0,.555-.162.555-.711V99.655c-.007-.562-.115-.7-.569-.69h-.068Z" transform="translate(-52.251 -60.404)" fill="#1c3a34"></path><path id="Path_7" data-name="Path 7" d="M102.268,100.806a2.506,2.506,0,0,1-5-.014,2.348,2.348,0,0,1,.744-1.726,2.691,2.691,0,0,1,1.8-.609,2.327,2.327,0,0,1,2.456,2.348m-3.62-1.272a3.251,3.251,0,0,0-.2,1.265,3.135,3.135,0,0,0,.2,1.266,1.229,1.229,0,0,0,2.247,0,3.213,3.213,0,0,0,.2-1.246,3.148,3.148,0,0,0-.2-1.286,1.229,1.229,0,0,0-2.247,0" transform="translate(-59.546 -60.276)" fill="#1c3a34"></path><path id="Path_8" data-name="Path 8" d="M120.135,103.262l-3.011-3.614v2.429a1.266,1.266,0,0,0,.041.474.655.655,0,0,0,.582.332h.074v.3h-1.692v-.3h.034a.669.669,0,0,0,.562-.284c.047-.081.061-.155.061-.514V99.75c-.027-.616-.169-.792-.623-.785h-.034v-.3h1.462l2.538,3.018v-2c.007-.48-.169-.683-.616-.717h-.054v-.3h1.624v.3h-.054c-.44.081-.582.264-.562.744v3.553Z" transform="translate(-71.093 -60.404)" fill="#1c3a34"></path><path id="Path_9" data-name="Path 9" d="M135.059,101.475h.318a2.381,2.381,0,0,0,.284.751,1.151,1.151,0,0,0,.975.576.7.7,0,0,0,.758-.67c0-.332-.244-.582-.832-.852a3.6,3.6,0,0,1-1.164-.7,1.231,1.231,0,0,1-.332-.852,1.274,1.274,0,0,1,1.326-1.266,1.369,1.369,0,0,1,.995.42.622.622,0,0,0,.128-.338h.3v1.279h-.291c-.169-.65-.575-1.042-1.076-1.042a.585.585,0,0,0-.643.575c0,.345.23.562.907.859a3.411,3.411,0,0,1,1.116.643,1.327,1.327,0,0,1,.372.927,1.384,1.384,0,0,1-1.468,1.36,1.608,1.608,0,0,1-1.225-.541,1.205,1.205,0,0,0-.135.385h-.318Z" transform="translate(-82.682 -60.275)" fill="#1c3a34"></path><path id="Path_10" data-name="Path 10" d="M222.534,1.578c-10.019-5.615-19.676,8.69-24.461,16.161-3.9,6.326-7.352,12.91-11.789,18.78-3.6,4.76-8.922,9.954-15.158,8.152a10.793,10.793,0,0,1-1.488-.552,22.412,22.412,0,0,1-2.153-1.371c-2.532-1.817-4.4-4.419-6.48-6.747.078.131.154.263.232.394-.093-.112-.187-.226-.281-.337q.391.6.789,1.2a43.6,43.6,0,0,0,2.665,4.195,22.359,22.359,0,0,0,7.481,6.181c7.549,4.524,15.239,2.119,21.465-3.5,4.9-4.391,8.6-9.767,11.97-15.364C210.371,20.56,218.634,2.51,228.544,1.1a9.5,9.5,0,0,1,5.829,1.258C231-.719,226.309-.572,222.534,1.578m-9.815,9.077c-7.778,9.89-12.31,22.333-21.486,30.985-4.63,4.433-10.541,7.2-16.7,4.734a15.047,15.047,0,0,0,9.383-4.45c6.786-6.49,10.931-15.165,15.754-23.137,4.561-7.314,12.925-21.322,22.685-17.105-.049.029-.1.054-.148.083-3.784,2.2-6.768,5.484-9.485,8.89" transform="translate(-98.536 0)" fill="#82ca9c"></path><path id="Path_11" data-name="Path 11" d="M7.354,41.374c-.074,5.089.223,5.571,3.157,5.571h.817V47.8H0v-.854H.632c2.934,0,3.194-.482,3.157-5.571V29.191C3.863,24.177,3.6,23.806.446,23.88H0v-.854l3.083-.111c3.826-.149,4.086-.149,5.795-.149,3.974,0,6.017.371,7.688,1.374a5.687,5.687,0,0,1,2.971,5.349,6.231,6.231,0,0,1-3.008,5.571c-1.338.78-3.083,1.077-6.463,1.077H7.354Zm1.783-6.128c2.414,0,3.417-.223,4.494-1A5.419,5.419,0,0,0,15.674,29.6a6.059,6.059,0,0,0-1.894-4.828c-1.04-.817-2.265-1.114-4.68-1.114-.78,0-1.151.036-1.746.074V35.246Z" transform="translate(0 -13.937)" fill="#1c3a34"></path><path id="Path_12" data-name="Path 12" d="M91.593,47.624c-1.152-.78-3.269-3.343-5.423-6.5-3.529-4.866-4.272-5.571-5.646-5.46h-1V41.2c-.074,5.088.223,5.571,3.157,5.571h1.188v.854H72.019V46.77H72.8c2.934,0,3.232-.483,3.158-5.571V29.016C76.03,24,75.77,23.63,72.613,23.7h-.446V22.85l3.565-.185c2.043-.112,4.68-.186,5.646-.186,3.6,0,6.054.482,7.763,1.56A5.452,5.452,0,0,1,92.076,28.9c0,3.38-2.637,5.757-7.057,6.277,1.337.743,3.009,2.637,5.646,6.24C93.6,45.4,95.492,46.77,98.056,46.77h.185v.854ZM79.93,34.81h1.709c4.494-.074,6.426-1.783,6.426-5.646,0-2.489-.854-4.271-2.451-5.014a10.023,10.023,0,0,0-4.494-.743c-.483,0-.892.037-1.6.074V34.847Z" transform="translate(-44.09 -13.762)" fill="#1c3a34"></path><path id="Path_13" data-name="Path 13" d="M182.3,40.521l-.52,7.688h-20.5v-.854h.52c2.971-.037,3.268-.482,3.194-5.571V29.639c.074-4.865-.185-5.348-2.9-5.348h-.3v-.854h17.68l.594,6.2h-.854c-1.04-4.532-2.34-5.5-7.243-5.348h-3.417v10.4h2.637c3.12,0,3.751-.557,3.714-3.417v-.3h.854v8.505h-.854v-.334c-.074-3.083-.632-3.64-3.64-3.566h-2.712v5.831c0,5.683.186,5.98,3.6,5.942h1.857c3.974.149,6.128-1.857,7.428-6.834Z" transform="translate(-98.732 -14.348)" fill="#1c3a34"></path><path id="Path_14" data-name="Path 14" d="M300.829,38.524l-.631,1.56c-1.263,2.935-1.448,3.565-1.448,4.419a2.246,2.246,0,0,0,2.414,2.266h.3v.854h-7.355V46.77l.335-.037c1.969-.446,2.637-1.226,4.048-4.9l.892-2.117,7.168-17.233h.706L315.537,42.2c1.634,3.937,1.857,4.2,3.9,4.569h.223v.854h-9.731V46.77h.3c2.08,0,2.749-.3,2.749-1.3,0-.446,0-.446-.854-2.377l-1.894-4.568Zm4.717-11.4L301.163,37.67h8.766Z" transform="translate(-180.05 -13.762)" fill="#1c3a34"></path></svg> 