<svg xmlns="http://www.w3.org/2000/svg" width="128" height="30" viewBox="0 0 128 30" fill="none"><path d="M39.5391 28.4173H37.8327V20.0179H39.5391V23.4867H43.5885V20.0179H45.2796V28.4173H43.5885V24.8569H39.5391V28.4173Z" fill="#231F20"></path><path d="M48.5752 23.4816C48.3001 23.7618 48.1371 24.1591 48.0862 24.6684H50.8775C50.8877 24.6328 50.8928 24.592 50.8928 24.5462V24.3526C50.8928 23.9655 50.7807 23.6548 50.5515 23.4154C50.3223 23.176 50.0217 23.0537 49.6448 23.0537C49.2068 23.0537 48.8502 23.1964 48.5752 23.4765M50.5566 27.1337C50.7807 26.9707 50.9386 26.7262 51.0252 26.4003L52.3903 26.8128C52.2324 27.3731 51.9064 27.8061 51.4225 28.1066C50.9386 28.4071 50.3477 28.5599 49.655 28.5599C48.6618 28.5599 47.8824 28.2696 47.317 27.694C46.7516 27.1134 46.4715 26.3137 46.4715 25.2898C46.4715 24.266 46.7567 23.4409 47.3272 22.8398C47.9028 22.2388 48.677 21.9331 49.6652 21.9331C50.526 21.9331 51.2035 22.1827 51.7077 22.6819C52.2069 23.1811 52.4565 23.8432 52.4565 24.6735C52.4565 24.8212 52.4463 24.9791 52.4158 25.1319C52.3852 25.2847 52.3546 25.4121 52.3241 25.514H48.0556C48.076 26.0997 48.2237 26.5582 48.5039 26.8841C48.784 27.2101 49.1711 27.3731 49.6652 27.3731C50.0319 27.3731 50.3274 27.2916 50.5515 27.1286" fill="#231F20"></path><path d="M56.7351 27.1185C56.9796 26.8791 57.1018 26.5378 57.1018 26.0997V25.6617C56.9592 25.6464 56.8421 25.6362 56.7453 25.6311C56.6536 25.6311 56.5874 25.626 56.5517 25.626C55.9507 25.626 55.5024 25.7126 55.1968 25.8807C54.8912 26.0539 54.7384 26.3086 54.7384 26.6397C54.7384 26.8994 54.8301 27.1032 55.0135 27.256C55.1968 27.4037 55.4464 27.4852 55.7571 27.4852C56.1595 27.4852 56.4855 27.363 56.73 27.1185M58.0391 22.4527C58.4669 22.794 58.6809 23.3033 58.6809 23.9757V26.8791C58.6809 27.0471 58.7165 27.1694 58.7929 27.2509C58.8693 27.3324 58.9865 27.3731 59.1495 27.3731C59.2208 27.3731 59.2921 27.363 59.3634 27.3426C59.4347 27.3222 59.4958 27.2916 59.5366 27.2509L59.6028 28.3053C59.4857 28.3817 59.3379 28.4428 59.1648 28.4835C58.9916 28.5243 58.8133 28.5447 58.635 28.5447C58.36 28.5447 58.1104 28.4988 57.8964 28.402C57.6825 28.3053 57.5144 28.1627 57.3871 27.9793C57.3412 27.9029 57.3056 27.8265 57.275 27.7552C57.2445 27.6788 57.2139 27.6024 57.1884 27.5158C57.0611 27.8367 56.8217 28.0862 56.4702 28.2696C56.1188 28.453 55.7062 28.5447 55.2427 28.5447C54.6009 28.5447 54.0864 28.3817 53.6993 28.0608C53.3122 27.7399 53.1237 27.3018 53.1237 26.7466C53.1237 26.1099 53.4039 25.6158 53.9591 25.2644C54.5194 24.9129 55.314 24.7346 56.3531 24.7346C56.46 24.7346 56.5823 24.7346 56.7249 24.7448C56.8624 24.755 56.9847 24.7601 57.0917 24.7703V24.0674C57.0917 23.7567 57 23.5173 56.8217 23.3492C56.6434 23.1811 56.3836 23.0996 56.0424 23.0996C55.7011 23.0996 55.4413 23.1862 55.263 23.3543C55.0848 23.5275 54.988 23.7719 54.9829 24.0878L53.4242 23.8636C53.4854 23.2677 53.7604 22.7991 54.2443 22.4527C54.7282 22.1114 55.3547 21.9382 56.1239 21.9382C56.9643 21.9382 57.601 22.1114 58.0289 22.4527" fill="#231F20"></path><path d="M62.8169 27.2713C62.9086 27.2458 62.9952 27.2051 63.0869 27.1439L63.2091 28.2645C63.0563 28.346 62.8679 28.4173 62.6539 28.4683C62.4349 28.5192 62.2108 28.5447 61.9765 28.5447C61.4467 28.5447 61.0444 28.4122 60.7642 28.1525C60.4841 27.8927 60.3414 27.5209 60.3414 27.0319V19.3354H61.9918V26.7415C61.9918 26.9351 62.0376 27.0777 62.1293 27.1694C62.2159 27.2611 62.3585 27.3069 62.5419 27.3069C62.6387 27.3069 62.7354 27.2967 62.8271 27.2662" fill="#231F20"></path><path d="M67.1058 27.2203C67.2688 27.1694 67.4521 27.0879 67.6457 26.9707L67.8749 28.1168C67.661 28.2594 67.4114 28.3715 67.1312 28.4479C66.8511 28.5294 66.5607 28.565 66.2653 28.565C65.5522 28.565 65.0021 28.4021 64.6201 28.0659C64.238 27.7348 64.0496 27.256 64.0496 26.6244V23.2422H63.1378V22.086H64.0496V20.7412L65.7152 20.5426V22.0911H67.61V23.2473H65.7152V26.441C65.7152 26.7262 65.7865 26.9402 65.9291 27.0828C66.0717 27.2254 66.2857 27.2967 66.576 27.2967C66.7645 27.2967 66.9428 27.2713 67.1058 27.2203" fill="#231F20"></path><path d="M70.3758 19.3405V23.1505C70.5643 22.7634 70.8393 22.468 71.2061 22.254C71.5728 22.0452 71.9956 21.9433 72.4795 21.9433C73.1213 21.9433 73.6357 22.1267 74.0178 22.4883C74.3998 22.8551 74.5882 23.3542 74.5882 23.991V28.4173H72.9226V24.4188C72.9226 24.0419 72.831 23.7516 72.6374 23.5529C72.4489 23.3543 72.179 23.2524 71.8173 23.2524C71.364 23.2524 71.0074 23.3899 70.7527 23.6701C70.4981 23.9502 70.3707 24.3526 70.3707 24.8721V28.4173H68.7204V19.3405H70.3707H70.3758Z" fill="#231F20"></path><path d="M83.935 21.6632C83.6498 21.4187 83.227 21.2964 82.6514 21.2964H81.1743V24.2507H82.6514C83.2219 24.2507 83.6498 24.1285 83.935 23.884C84.2152 23.6446 84.3578 23.2677 84.3578 22.7634C84.3578 22.2591 84.2152 21.8975 83.935 21.6581M85.2441 24.7754C84.6634 25.2644 83.8637 25.5038 82.8399 25.5038H81.1794V28.4122H79.473V20.0128H82.8399C83.879 20.0128 84.6838 20.2522 85.2543 20.7361C85.8248 21.22 86.11 21.8924 86.11 22.7685C86.11 23.6446 85.8197 24.2915 85.239 24.7805" fill="#231F20"></path><path d="M90.1442 27.1185C90.3887 26.8791 90.5109 26.5378 90.5109 26.0997V25.6617C90.3683 25.6464 90.2512 25.6362 90.1544 25.6311C90.0627 25.6311 89.9965 25.626 89.9608 25.626C89.3598 25.626 88.9115 25.7126 88.6059 25.8807C88.3054 26.0539 88.1526 26.3086 88.1526 26.6397C88.1526 26.8994 88.2443 27.1032 88.4276 27.256C88.611 27.4037 88.8606 27.4852 89.1713 27.4852C89.5737 27.4852 89.8997 27.363 90.1442 27.1185M91.4532 22.4527C91.8811 22.794 92.095 23.3033 92.095 23.9757V26.8791C92.095 27.0471 92.1307 27.1694 92.2071 27.2509C92.2835 27.3324 92.4007 27.3731 92.5637 27.3731C92.635 27.3731 92.7063 27.363 92.7776 27.3426C92.8489 27.3222 92.91 27.2916 92.9508 27.2509L93.017 28.3053C92.8998 28.3817 92.7572 28.4428 92.5789 28.4835C92.4058 28.5243 92.2275 28.5447 92.0492 28.5447C91.7742 28.5447 91.5246 28.4988 91.3106 28.402C91.0967 28.3053 90.9286 28.1627 90.8013 27.9793C90.7554 27.9029 90.7198 27.8265 90.6892 27.7552C90.6586 27.6788 90.6281 27.6024 90.6026 27.5158C90.4753 27.8367 90.2359 28.0862 89.8844 28.2696C89.5279 28.453 89.1204 28.5447 88.6569 28.5447C88.0151 28.5447 87.4955 28.3817 87.1135 28.0608C86.7264 27.7399 86.5379 27.3018 86.5379 26.7466C86.5379 26.1099 86.818 25.6158 87.3783 25.2644C87.9386 24.9129 88.7333 24.7346 89.7724 24.7346C89.8793 24.7346 90.0016 24.7346 90.1442 24.7448C90.2817 24.755 90.404 24.7601 90.5109 24.7703V24.0674C90.5109 23.7567 90.4192 23.5173 90.241 23.3492C90.0627 23.1811 89.8029 23.0996 89.4616 23.0996C89.1204 23.0996 88.8606 23.1862 88.6823 23.3543C88.504 23.5275 88.4073 23.7719 88.4022 24.0878L86.8435 23.8636C86.9046 23.2677 87.1797 22.7991 87.6636 22.4527C88.1475 22.1114 88.774 21.9382 89.5431 21.9382C90.3836 21.9382 91.0203 22.1114 91.4482 22.4527" fill="#231F20"></path><path d="M93.8269 22.091H95.2226L95.411 23.6242C95.5435 23.1149 95.7981 22.7074 96.17 22.4068C96.5418 22.1063 96.9748 21.9535 97.479 21.9535C97.5503 21.9535 97.6267 21.9535 97.7031 21.9586C97.7796 21.9586 97.8509 21.9739 97.9273 21.9892L97.8356 23.5733C97.7541 23.5478 97.6522 23.5274 97.5198 23.5122C97.3873 23.4969 97.2651 23.4867 97.1479 23.4867C96.6488 23.4867 96.2464 23.6548 95.9408 23.991C95.6351 24.3271 95.4874 24.7856 95.4874 25.3611V28.4173H93.8371V22.091H93.8269Z" fill="#231F20"></path><path d="M102.364 27.2203C102.527 27.1694 102.71 27.0879 102.909 26.9707L103.138 28.1168C102.924 28.2594 102.674 28.3715 102.394 28.4479C102.114 28.5294 101.824 28.565 101.528 28.565C100.815 28.565 100.265 28.4021 99.8832 28.0659C99.5012 27.7348 99.3127 27.256 99.3127 26.6244V23.2422H98.4009V22.086H99.3127V20.7412L100.978 20.5426V22.0911H102.873V23.2473H100.978V26.441C100.978 26.7262 101.05 26.9402 101.192 27.0828C101.335 27.2254 101.549 27.2967 101.839 27.2967C102.028 27.2967 102.206 27.2713 102.369 27.2203" fill="#231F20"></path><path d="M105.338 22.0911L105.537 23.3135C105.705 22.8755 105.985 22.5393 106.372 22.2999C106.76 22.0605 107.213 21.9433 107.743 21.9433C108.39 21.9433 108.899 22.1267 109.281 22.4884C109.663 22.85 109.851 23.3543 109.851 23.991V28.4173H108.191V24.4188C108.191 24.0419 108.094 23.7516 107.911 23.5529C107.722 23.3543 107.447 23.2524 107.091 23.2524C106.632 23.2524 106.276 23.395 106.026 23.6752C105.766 23.9553 105.639 24.3577 105.639 24.8773V28.4224H103.989V22.0961H105.344L105.338 22.0911Z" fill="#231F20"></path><path d="M113.015 23.4816C112.74 23.7618 112.577 24.1591 112.526 24.6684H115.317C115.327 24.6328 115.332 24.592 115.332 24.5462V24.3526C115.332 23.9655 115.215 23.6548 114.991 23.4154C114.762 23.176 114.461 23.0537 114.084 23.0537C113.646 23.0537 113.295 23.1964 113.02 23.4765M115.001 27.1337C115.225 26.9707 115.383 26.7262 115.47 26.4003L116.84 26.8128C116.682 27.3731 116.356 27.8061 115.872 28.1066C115.388 28.4071 114.797 28.5599 114.1 28.5599C113.106 28.5599 112.327 28.2696 111.767 27.694C111.201 27.1134 110.921 26.3137 110.921 25.2898C110.921 24.266 111.206 23.4409 111.782 22.8398C112.352 22.2388 113.132 21.9331 114.12 21.9331C114.976 21.9331 115.658 22.1827 116.157 22.6819C116.662 23.1811 116.911 23.8432 116.911 24.6735C116.911 24.8212 116.901 24.9791 116.87 25.1319C116.84 25.2847 116.809 25.4121 116.779 25.514H112.51C112.526 26.0997 112.678 26.5582 112.959 26.8841C113.239 27.2101 113.626 27.3731 114.12 27.3731C114.487 27.3731 114.782 27.2916 115.006 27.1286" fill="#231F20"></path><path d="M118.011 22.091H119.407L119.596 23.6242C119.733 23.1149 119.983 22.7074 120.354 22.4068C120.726 22.1063 121.159 21.9535 121.664 21.9535C121.735 21.9535 121.811 21.9535 121.888 21.9586C121.964 21.9586 122.035 21.9739 122.107 21.9892L122.015 23.5733C121.934 23.5478 121.832 23.5274 121.699 23.5122C121.567 23.4969 121.445 23.4867 121.327 23.4867C120.828 23.4867 120.426 23.6548 120.12 23.991C119.82 24.3271 119.667 24.7856 119.667 25.3611V28.4173H118.017V22.091H118.011Z" fill="#231F20"></path><path d="M123.36 28.1066C122.855 27.801 122.55 27.3782 122.433 26.8281L123.869 26.5021C123.915 26.7976 124.063 27.037 124.317 27.2203C124.572 27.4037 124.883 27.4954 125.249 27.4954C125.616 27.4954 125.917 27.4241 126.12 27.2865C126.324 27.149 126.431 26.9555 126.431 26.7008C126.431 26.4919 126.339 26.3239 126.156 26.1914C125.973 26.0641 125.57 25.9367 124.954 25.8094C124.501 25.7177 124.159 25.6311 123.94 25.5598C123.721 25.4834 123.533 25.4019 123.38 25.3051C123.151 25.1574 122.973 24.9689 122.855 24.7397C122.738 24.5156 122.682 24.2507 122.682 23.9502C122.682 23.3441 122.922 22.8602 123.406 22.4934C123.889 22.1267 124.521 21.9382 125.295 21.9382C126.07 21.9382 126.676 22.0911 127.119 22.4069C127.567 22.7176 127.832 23.1607 127.908 23.7363L126.472 23.8993C126.446 23.614 126.329 23.3899 126.126 23.232C125.917 23.0741 125.647 22.9926 125.305 22.9926C124.964 22.9926 124.704 23.0639 124.516 23.2066C124.328 23.3492 124.236 23.5478 124.236 23.8076C124.236 24.0164 124.328 24.1845 124.506 24.3119C124.684 24.4341 125.081 24.5513 125.703 24.6633C126.171 24.755 126.513 24.8416 126.732 24.918C126.951 24.9944 127.139 25.081 127.302 25.1829C127.536 25.3357 127.71 25.5242 127.827 25.7483C127.944 25.9724 128 26.2474 128 26.5633C128 27.1847 127.75 27.6686 127.251 28.0251C126.747 28.3817 126.08 28.56 125.239 28.56C124.485 28.56 123.864 28.4071 123.36 28.1015" fill="#231F20"></path><path d="M19.1747 1.10024H11.9214C11.6566 1.10024 11.4426 1.29889 11.4426 1.54847V8.02247C11.4426 8.26696 11.6566 8.47071 11.9214 8.47071H13.8264C14.0913 8.47071 14.3001 8.27206 14.3001 8.02247V3.77948H19.2002C21.1205 3.77948 22.781 5.15985 22.8727 6.9579C22.9695 8.88329 21.3293 10.4776 19.3021 10.4776V6.23461C19.3021 5.99011 19.0881 5.78637 18.8284 5.78637H16.9234C16.6585 5.78637 16.4446 5.98502 16.4446 6.23461V10.4776H9.29311V6.23461C9.29311 5.99011 9.07918 5.78637 8.81941 5.78637H6.9093C6.64952 5.78637 6.43559 5.98502 6.43559 6.23461V10.4776C2.81912 10.4776 -0.0944357 13.2689 0.00234317 16.6765C0.0940284 19.9619 3.06361 22.5342 6.56802 22.5342H13.8213C14.0862 22.5342 14.2951 22.3356 14.2951 22.086V15.612C14.2951 15.3624 14.0811 15.1637 13.8213 15.1637H11.9163C11.6515 15.1637 11.4375 15.3624 11.4375 15.612V19.855H6.53746C4.61717 19.855 2.95664 18.4695 2.86496 16.6765C2.76309 14.7511 4.40323 13.1568 6.43559 13.1568V17.3998C6.43559 17.6443 6.64952 17.8481 6.9093 17.8481H8.81941C9.08427 17.8481 9.29311 17.6494 9.29311 17.3998V13.1568H16.4446V17.3998C16.4446 17.6443 16.6585 17.8481 16.9234 17.8481H18.8284C19.0932 17.8481 19.3021 17.6494 19.3021 17.3998V13.1568C22.9186 13.1568 25.8321 10.3655 25.7353 6.9579C25.6386 3.67252 22.6741 1.09514 19.1696 1.09514" fill="#579374"></path><path d="M31.1957 29.8283C30.9919 29.8283 30.8239 29.6704 30.8239 29.4768V0.35146C30.8239 0.157902 30.9919 0 31.1957 0C31.3994 0 31.5675 0.157902 31.5675 0.35146V29.4819C31.5675 29.6755 31.3994 29.8334 31.1957 29.8334" fill="#231F20"></path><path d="M46.3543 11.807H41.6682L40.7513 14.2978H37.5933L42.2437 2.32272H45.901L50.5514 14.2978H47.2813L46.3645 11.807H46.3543ZM42.4679 9.58114H45.5291L44.0163 5.44002H43.9807L42.4679 9.58114V9.58114Z" fill="#579374"></path><path d="M57.9118 12.6322C57.5094 13.87 56.3837 14.5168 54.9829 14.5168C52.8181 14.5168 51.0965 12.8512 51.0965 9.96314C51.0965 6.78982 52.7417 5.01724 55.1714 5.01724C56.5314 5.01724 57.4839 5.57244 57.8303 6.39761V1.35492H61.0087V14.2978H58.2734L57.9067 12.6322H57.9118ZM57.8354 9.04629C57.8354 7.77289 57.0102 7.16675 56.1697 7.16675C55.0186 7.16675 54.331 8.06322 54.331 9.85618C54.331 11.3995 55.0186 12.2247 56.1086 12.2247C57.0459 12.2247 57.8303 11.5422 57.8303 10.1261V9.05139L57.8354 9.04629Z" fill="#579374"></path><path d="M67.4623 11.0735L69.4743 5.22606H72.4948L68.9343 14.2978H65.8374L62.277 5.22606H65.5675L67.4266 11.0735H67.4623Z" fill="#579374"></path><path d="M81.3373 11.6644C81.3373 12.133 81.6022 12.3113 81.9485 12.3113C82.1574 12.3113 82.3305 12.24 82.4834 12.1126L82.6005 14.0329C82.1574 14.3182 81.5105 14.4812 80.8585 14.4812C79.9773 14.4812 79.2897 14.1755 78.872 13.656C78.7192 13.493 78.6224 13.2994 78.546 13.0651C78.1436 13.9412 77.0383 14.4812 75.7547 14.4812C73.9363 14.4812 72.6934 13.5134 72.6934 11.8478C72.6934 10.0395 74.359 9.03098 77.0943 9.03098C77.4763 9.03098 77.9755 9.06664 78.3015 9.08701V8.17016C78.3015 7.50799 77.9399 7.11069 77.2115 7.11069C76.4831 7.11069 76.0603 7.55893 76.0603 8.33316L73.1722 7.95623C73.3454 6.14799 74.8939 5.01721 77.3439 5.01721C80.0995 5.01721 81.3424 6.14799 81.3424 8.06319V11.6644H81.3373ZM78.2964 10.5336C78.1232 10.5132 77.8736 10.4979 77.624 10.4979C76.3608 10.4979 75.7088 10.8749 75.7088 11.6084C75.7088 12.1788 76.1316 12.5558 76.86 12.5558C77.5884 12.5558 78.2964 12.1585 78.2964 11.0684V10.5285V10.5336Z" fill="#579374"></path><path d="M86.9454 6.96809C87.4242 5.71506 88.5907 5.01214 90.0423 5.01214C91.7844 5.01214 93.068 6.01558 93.068 7.95116V14.2978H89.9099V8.89857C89.9099 8.0021 89.5686 7.46217 88.6467 7.46217C87.7247 7.46217 87.0218 8.0021 87.0218 9.37737V14.2927H83.8638V5.22607H86.5634L86.9454 6.96809V6.96809Z" fill="#579374"></path><path d="M101.661 13.763C100.973 14.2469 100.036 14.5169 99.0224 14.5169C96.9747 14.5169 95.5587 13.5847 95.5587 11.4505V7.40106H94.3159V5.23118H95.5791V3.31598L98.7371 2.95942V5.23627H101.243V7.40616H98.7168V11.0634C98.7168 11.8172 99.1191 12.1585 99.8068 12.1585C100.321 12.1585 100.764 12.0159 101.258 11.6899L101.661 13.7681V13.763Z" fill="#579374"></path><path d="M108.873 12.6526C108.456 13.8699 107.401 14.5168 105.924 14.5168C104.279 14.5168 102.883 13.549 102.883 11.5778V5.23116H106.041V10.7526C106.041 11.6491 106.464 12.1687 107.284 12.1687C108.165 12.1687 108.817 11.5778 108.817 10.2127V5.23116H111.975V14.2978H109.261L108.879 12.6475L108.873 12.6526Z" fill="#579374"></path><path d="M115.994 11.4861C116.127 12.1483 116.779 12.5965 117.584 12.5965C118.388 12.5965 118.903 12.3113 118.903 11.7357C118.903 10.1618 113.677 11.5727 113.677 8.06319C113.677 6.07668 115.516 5.01721 117.772 5.01721C120.028 5.01721 121.501 5.96462 121.791 7.65061L119.168 7.93585C119.091 7.30934 118.612 6.89675 117.792 6.89675C117.064 6.89675 116.626 7.21765 116.626 7.75758C116.626 9.35188 121.888 7.86454 121.888 11.4861C121.888 13.4573 120.09 14.5168 117.563 14.5168C115.46 14.5168 113.779 13.712 113.356 12.0464L115.994 11.4912V11.4861Z" fill="#579374"></path></svg>