<svg width="24" height="24" viewBox="0 0 24 24" fill="none" xmlns="http://www.w3.org/2000/svg">
<path d="M19.9777 6.11287H2.27184C1.77 6.11287 1.35938 5.70225 1.35938 5.20041V1.19372C1.35938 0.691875 1.77 0.28125 2.27184 0.28125H19.9777C20.4796 0.28125 20.8902 0.691875 20.8902 1.19372V5.20041C20.8902 5.70225 20.4796 6.11287 19.9777 6.11287Z" fill="#3448FF"/>
<path d="M17.9879 3.47852H14.3965C14.2412 3.47852 14.1152 3.35256 14.1152 3.19727C14.1152 3.04197 14.2412 2.91602 14.3965 2.91602H17.9879C18.1432 2.91602 18.2691 3.04197 18.2691 3.19727C18.2691 3.35256 18.1432 3.47852 17.9879 3.47852Z" fill="#52B9F3"/>
<path d="M19.9523 8.25391H2.29734C1.78148 8.25391 1.35938 8.67461 1.35938 9.18883V13.1507C1.35938 13.6649 1.78144 14.0856 2.29734 14.0856H14.6439C14.9218 12.6932 16.1279 11.6455 17.5737 11.6455C18.9651 11.6455 20.1344 12.616 20.4681 13.93C20.7219 13.7622 20.8903 13.4752 20.8903 13.1507V9.18883C20.8902 8.67461 20.4682 8.25391 19.9523 8.25391Z" fill="#3448FF"/>
<path d="M12.5067 16.9398C12.5062 16.6752 12.5861 16.4295 12.7227 16.2266H2.29734C1.78148 16.2266 1.35938 16.6473 1.35938 17.1615V21.1233C1.35938 21.6375 1.78144 22.0582 2.29734 22.0582H12.5067V16.9398Z" fill="#3448FF"/>
<path d="M21.4849 15.6797H17.6298H13.8683H13.7384C13.0582 15.6797 12.5064 16.2446 12.5078 16.9391V22.4603C12.5078 23.1548 13.0611 23.7182 13.7414 23.7182L17.6298 23.7159L21.4112 23.7136C22.0914 23.7136 22.6433 23.1502 22.6418 22.4557V16.9331C22.6418 16.2657 22.1298 15.7204 21.4849 15.6797Z" fill="#0795FF"/>
<path d="M13.8683 15.6797H13.7384C13.0582 15.6797 12.5064 16.2447 12.5078 16.9391V22.4603C12.5078 23.1548 13.0611 23.7182 13.7414 23.7182L17.6298 23.7159V15.6797L13.8683 15.6797Z" fill="#3EB6FF"/>
<path d="M20.5642 14.9865C20.4046 14.9865 20.2751 14.8575 20.2751 14.6983C20.2751 13.1739 19.0634 11.9337 17.5742 11.9337C16.0848 11.9337 14.8732 13.1739 14.8732 14.6983C14.8732 14.8575 14.7437 14.9865 14.584 14.9865C14.4244 14.9865 14.2949 14.8575 14.2949 14.6983C14.2949 12.8562 15.766 11.3574 17.5741 11.3574C19.3822 11.3574 20.8533 12.8562 20.8533 14.6983C20.8533 14.8575 20.7239 14.9865 20.5642 14.9865Z" fill="#52B9F3"/>
<path d="M17.5742 11.9337C16.0848 11.9337 14.8732 13.1739 14.8732 14.6983C14.8732 14.8575 14.7437 14.9865 14.584 14.9865C14.4244 14.9865 14.2949 14.8575 14.2949 14.6983C14.2949 12.8562 15.766 11.3574 17.5741 11.3574" fill="#52B9F3"/>
<path d="M18.4446 18.5144C18.2967 18.1074 17.9068 17.8482 17.4846 17.8334C17.4719 17.833 17.4594 17.832 17.4467 17.832C17.1631 17.832 16.8867 17.9542 16.7102 18.1817C16.2603 18.7614 16.4603 19.4683 16.95 19.7761L16.9507 20.7965C16.9509 21.0986 17.1897 21.3435 17.4846 21.3441C17.485 21.3441 17.4854 21.3441 17.4859 21.3441C17.7813 21.3441 18.0207 21.0986 18.0206 20.796L18.0202 19.7757C18.4185 19.5248 18.6245 19.0096 18.4446 18.5144Z" fill="white"/>
</svg>
