<svg width="31" height="31" viewBox="0 0 31 31" fill="none" xmlns="http://www.w3.org/2000/svg">
<path d="M11.1406 22.9072H7.87109V12.3955H11.1406V22.9072ZM9.48828 10.9893C8.46875 10.9893 7.625 10.1104 7.625 9.05566C7.625 8.3877 7.97656 7.75488 8.53906 7.43848C9.13672 7.08691 9.875 7.08691 10.4375 7.43848C11.0352 7.75488 11.3867 8.3877 11.3867 9.05566C11.3867 10.1104 10.543 10.9893 9.48828 10.9893ZM23.3398 22.9072H20.1055V17.8096C20.1055 16.5791 20.0703 15.0322 18.3828 15.0322C16.6953 15.0322 16.4492 16.333 16.4492 17.7041V22.9072H13.1797V12.3955H16.3086V13.8369H16.3438C16.8008 13.0283 17.8555 12.1494 19.4375 12.1494C22.7422 12.1494 23.375 14.3291 23.375 17.1416V22.9072H23.3398Z" fill="currentcolor"></path>
</svg>