<svg width="30" height="30" viewBox="0 0 30 30" fill="none" xmlns="http://www.w3.org/2000/svg">
<path d="M22.1367 11.5938C22.1367 11.7695 22.1367 11.9102 22.1367 12.0859C22.1367 16.9727 18.4453 22.5625 11.6602 22.5625C9.55078 22.5625 7.61719 21.9648 6 20.9102C6.28125 20.9453 6.5625 20.9805 6.87891 20.9805C8.60156 20.9805 10.1836 20.3828 11.4492 19.3984C9.83203 19.3633 8.46094 18.3086 8.00391 16.832C8.25 16.8672 8.46094 16.9023 8.70703 16.9023C9.02344 16.9023 9.375 16.832 9.65625 16.7617C7.96875 16.4102 6.70312 14.9336 6.70312 13.1406V13.1055C7.19531 13.3867 7.79297 13.5273 8.39062 13.5625C7.37109 12.8945 6.73828 11.7695 6.73828 10.5039C6.73828 9.80078 6.91406 9.16797 7.23047 8.64062C9.05859 10.8555 11.8008 12.332 14.8594 12.5078C14.7891 12.2266 14.7539 11.9453 14.7539 11.6641C14.7539 9.625 16.4062 7.97266 18.4453 7.97266C19.5 7.97266 20.4492 8.39453 21.1523 9.13281C21.9609 8.95703 22.7695 8.64062 23.4727 8.21875C23.1914 9.09766 22.6289 9.80078 21.8555 10.2578C22.5938 10.1875 23.332 9.97656 23.9648 9.69531C23.4727 10.4336 22.8398 11.0664 22.1367 11.5938Z" fill="currentcolor"></path>
<rect x="0.5" y="0.5" width="29" height="29" rx="14.5" stroke="currentcolor"></rect>
</svg>