<svg width="31" height="31" viewBox="0 0 31 31" fill="currentcolor" xmlns="http://www.w3.org/2000/svg">
<path d="M22.6367 12.501C22.6367 12.6768 22.6367 12.8174 22.6367 12.9932C22.6367 17.8799 18.9453 23.4697 12.1602 23.4697C10.0508 23.4697 8.11719 22.8721 6.5 21.8174C6.78125 21.8525 7.0625 21.8877 7.37891 21.8877C9.10156 21.8877 10.6836 21.29 11.9492 20.3057C10.332 20.2705 8.96094 19.2158 8.50391 17.7393C8.75 17.7744 8.96094 17.8096 9.20703 17.8096C9.52344 17.8096 9.875 17.7393 10.1562 17.6689C8.46875 17.3174 7.20312 15.8408 7.20312 14.0479V14.0127C7.69531 14.2939 8.29297 14.4346 8.89062 14.4697C7.87109 13.8018 7.23828 12.6768 7.23828 11.4111C7.23828 10.708 7.41406 10.0752 7.73047 9.54785C9.55859 11.7627 12.3008 13.2393 15.3594 13.415C15.2891 13.1338 15.2539 12.8525 15.2539 12.5713C15.2539 10.5322 16.9062 8.87988 18.9453 8.87988C20 8.87988 20.9492 9.30176 21.6523 10.04C22.4609 9.86426 23.2695 9.54785 23.9727 9.12598C23.6914 10.0049 23.1289 10.708 22.3555 11.165C23.0938 11.0947 23.832 10.8838 24.4648 10.6025C23.9727 11.3408 23.3398 11.9736 22.6367 12.501Z" fill="currentcolor"></path>
</svg>