<svg width="30" height="30" viewBox="0 0 30 30" fill="none" xmlns="http://www.w3.org/2000/svg">
<path d="M10.6406 22H7.37109V11.4883H10.6406V22ZM8.98828 10.082C7.96875 10.082 7.125 9.20312 7.125 8.14844C7.125 6.70703 8.67188 5.79297 9.9375 6.53125C10.5352 6.84766 10.8867 7.48047 10.8867 8.14844C10.8867 9.20312 10.043 10.082 8.98828 10.082ZM22.8398 22H19.6055V16.9023C19.6055 15.6719 19.5703 14.125 17.8828 14.125C16.1953 14.125 15.9492 15.4258 15.9492 16.7969V22H12.6797V11.4883H15.8086V12.9297H15.8438C16.3008 12.1211 17.3555 11.2422 18.9375 11.2422C22.2422 11.2422 22.875 13.4219 22.875 16.2344V22H22.8398Z" fill="currentcolor"></path>
<rect x="0.5" y="0.5" width="29" height="29" rx="14.5" stroke="currentcolor"></rect>
</svg>