<svg xmlns="http://www.w3.org/2000/svg" xmlns:xlink="http://www.w3.org/1999/xlink" viewBox="0 0 300 300" width="300" height="300" preserveAspectRatio="xMidYMid meet" style="width: 100%; height: 100%; transform: translate3d(0px, 0px, 0px); content-visibility: visible;"><defs><clipPath id="__lottie_element_2"><rect width="300" height="300" x="0" y="0"></rect></clipPath></defs><g clip-path="url(#__lottie_element_2)"><g transform="matrix(1,0,0,1,17.813995361328125,218.42141723632812)" opacity="1" style="display: block;"><g opacity="1" transform="matrix(1,0,0,1,133.18600463867188,17.82699966430664)"><path fill="rgb(0,0,0)" fill-opacity="1" d=" M115.35900115966797,-17.57699966430664 C115.35900115966797,-17.57699966430664 -115.35800170898438,-17.57699966430664 -115.35800170898438,-17.57699966430664 C-125.06500244140625,-17.57699966430664 -132.93600463867188,-9.708000183105469 -132.93600463867188,0 C-132.93600463867188,9.706999778747559 -125.06500244140625,17.57699966430664 -115.35800170898438,17.57699966430664 C-115.35800170898438,17.57699966430664 115.35900115966797,17.57699966430664 115.35900115966797,17.57699966430664 C125.06600189208984,17.57699966430664 132.93600463867188,9.706999778747559 132.93600463867188,0 C132.93600463867188,-9.708000183105469 125.06600189208984,-17.57699966430664 115.35900115966797,-17.57699966430664z"></path></g></g><g transform="matrix(1,0,0,1,17.813995361328125,136.6020050048828)" opacity="0.9986927423967841" style="display: block;"><g opacity="1" transform="matrix(1,0,0,1,133.18600463867188,17.82699966430664)"><path fill="rgb(0,0,0)" fill-opacity="1" d=" M115.35900115966797,-17.57699966430664 C115.35900115966797,-17.57699966430664 -115.35800170898438,-17.57699966430664 -115.35800170898438,-17.57699966430664 C-125.06500244140625,-17.57699966430664 -132.93600463867188,-9.708000183105469 -132.93600463867188,0 C-132.93600463867188,9.706999778747559 -125.06500244140625,17.57699966430664 -115.35800170898438,17.57699966430664 C-115.35800170898438,17.57699966430664 115.35900115966797,17.57699966430664 115.35900115966797,17.57699966430664 C125.06600189208984,17.57699966430664 132.93600463867188,9.706999778747559 132.93600463867188,0 C132.93600463867188,-9.708000183105469 125.06600189208984,-17.57699966430664 115.35900115966797,-17.57699966430664z"></path></g></g><g transform="matrix(1,0,0,1,17.813995361328125,54.7888069152832)" opacity="1" style="display: block;"><g opacity="1" transform="matrix(1,0,0,1,133.18600463867188,17.82699966430664)"><path fill="rgb(0,0,0)" fill-opacity="1" d=" M115.35900115966797,-17.57699966430664 C115.35900115966797,-17.57699966430664 -115.35800170898438,-17.57699966430664 -115.35800170898438,-17.57699966430664 C-125.06500244140625,-17.57699966430664 -132.93600463867188,-9.708000183105469 -132.93600463867188,0 C-132.93600463867188,9.706999778747559 -125.06500244140625,17.57699966430664 -115.35800170898438,17.57699966430664 C-115.35800170898438,17.57699966430664 115.35900115966797,17.57699966430664 115.35900115966797,17.57699966430664 C125.06600189208984,17.57699966430664 132.93600463867188,9.706999778747559 132.93600463867188,0 C132.93600463867188,-9.708000183105469 125.06600189208984,-17.57699966430664 115.35900115966797,-17.57699966430664z"></path></g></g></g></svg>