<svg width="160" height="35" viewBox="0 0 160 35" fill="none" xmlns="http://www.w3.org/2000/svg">
<path d="M51.5701 11.6411H53.6247V16.3312H58.9757V11.6411H61.0301V22.6215H58.9757V18.1666H53.6247V22.6215H51.5701V11.6411ZM86.7653 12.2371C87.6393 12.7287 88.3267 13.4031 88.8276 14.2607C89.3285 15.1182 89.5788 16.0698 89.5788 17.1156C89.5788 18.1614 89.3285 19.1156 88.8276 19.9784C88.3267 20.8411 87.6393 21.5235 86.7653 22.0254C85.8914 22.5274 84.9229 22.7784 83.8599 22.7784C82.7969 22.7784 81.8283 22.5274 80.9545 22.0254C80.0805 21.5235 79.3931 20.8411 78.8922 19.9784C78.3913 19.1156 78.141 18.1614 78.141 17.1156C78.141 16.0698 78.3913 15.1182 78.8922 14.2607C79.3931 13.4031 80.0805 12.7287 80.9545 12.2371C81.8283 11.7457 82.7969 11.4999 83.8599 11.4999C84.9229 11.4999 85.8914 11.7457 86.7653 12.2371ZM82.066 13.8764C81.5039 14.2058 81.0592 14.6555 80.7321 15.2255C80.405 15.7954 80.2414 16.4254 80.2414 17.1156C80.2414 17.8058 80.4076 18.4385 80.7398 19.0137C81.072 19.5888 81.5167 20.0437 82.0737 20.3784C82.6308 20.713 83.2365 20.8804 83.8906 20.8804C84.5346 20.8804 85.1324 20.713 85.6844 20.3784C86.2364 20.0437 86.6733 19.5888 86.9953 19.0137C87.3173 18.4385 87.4783 17.8058 87.4783 17.1156C87.4783 16.4254 87.3173 15.7954 86.9953 15.2255C86.6733 14.6555 86.2364 14.2058 85.6844 13.8764C85.1324 13.547 84.5346 13.3822 83.8906 13.3822C83.2365 13.3822 82.6282 13.547 82.066 13.8764ZM100.978 11.6411H102.972V22.6215H101.024L95.5048 15.0607V22.6215H93.4962V11.6411H95.4435L100.978 19.2176V11.6411ZM107.717 11.6411H109.771V22.6215H107.717V11.6411ZM120.949 13.7588C120.432 13.5078 119.909 13.3822 119.377 13.3822C118.712 13.3822 118.104 13.5444 117.552 13.8686C117.001 14.1927 116.567 14.6398 116.249 15.2097C115.932 15.7797 115.774 16.4045 115.774 17.0842C115.774 17.764 115.932 18.3888 116.249 18.9588C116.567 19.5287 117.001 19.9784 117.552 20.3078C118.104 20.6371 118.712 20.8019 119.377 20.8019C119.888 20.8019 120.402 20.6868 120.918 20.4568C121.434 20.2267 121.891 19.9078 122.29 19.4999L123.501 20.8804C122.939 21.4659 122.286 21.9287 121.539 22.2686C120.793 22.6085 120.037 22.7784 119.27 22.7784C118.238 22.7784 117.292 22.5274 116.433 22.0254C115.574 21.5235 114.9 20.8411 114.41 19.9784C113.919 19.1156 113.673 18.1614 113.673 17.1156C113.673 16.0698 113.924 15.1182 114.424 14.2607C114.926 13.4031 115.608 12.7287 116.471 12.2371C117.336 11.7457 118.293 11.4999 119.347 11.4999C120.113 11.4999 120.864 11.6568 121.6 11.9705C122.337 12.2842 122.964 12.7182 123.487 13.2725L122.29 14.8097C121.912 14.36 121.464 14.0097 120.949 13.7588ZM127.297 11.6411H129.351V20.7235H133.981V22.6215H127.297V11.6411ZM137.699 11.6411H145.749V13.4764H139.753V16.1901H144.131V18.0255H139.753V20.7862H145.749V22.6215H137.699V11.6411ZM157.287 12.3391C158.134 12.8045 158.799 13.4555 159.279 14.2921C159.76 15.1287 160 16.0751 160 17.1312C160 18.1875 159.758 19.1312 159.272 19.9627C158.787 20.794 158.114 21.445 157.256 21.9156C156.397 22.3862 155.421 22.6215 154.327 22.6215H149.942V11.6411H154.403C155.477 11.6411 156.438 11.8738 157.287 12.3391ZM156.221 20.3078C156.747 19.9992 157.159 19.5705 157.454 19.0215C157.751 18.4725 157.9 17.8477 157.9 17.147C157.9 16.4464 157.747 15.8162 157.44 15.2568C157.133 14.6974 156.711 14.2634 156.174 13.9548C155.638 13.6464 155.038 13.4921 154.373 13.4921H151.997V20.7705H154.45C155.104 20.7705 155.694 20.6162 156.221 20.3078ZM45.2226 13.7588C44.7063 13.5078 44.1826 13.3822 43.651 13.3822C42.9866 13.3822 42.3784 13.5444 41.8264 13.8686C41.2744 14.1927 40.8401 14.6398 40.5232 15.2097C40.2063 15.7797 40.0479 16.4045 40.0479 17.0842C40.0479 17.764 40.2063 18.3888 40.5232 18.9588C40.8401 19.5287 41.2744 19.9784 41.8264 20.3078C42.3784 20.6371 42.9866 20.8019 43.651 20.8019C44.1621 20.8019 44.6757 20.6868 45.1919 20.4568C45.7081 20.2267 46.1654 19.9078 46.5641 19.4999L47.7753 20.8804C47.2132 21.4659 46.559 21.9287 45.8129 22.2686C45.0667 22.6085 44.3103 22.7784 43.5437 22.7784C42.5113 22.7784 41.5658 22.5274 40.7072 22.0254C39.8486 21.5235 39.174 20.8411 38.6833 19.9784C38.1927 19.1156 37.9474 18.1614 37.9474 17.1156C37.9474 16.0698 38.1978 15.1182 38.6987 14.2607C39.1996 13.4031 39.8818 12.7287 40.7456 12.2371C41.6092 11.7457 42.5676 11.4999 43.6203 11.4999C44.387 11.4999 45.1382 11.6568 45.8742 11.9705C46.6101 12.2842 47.2388 12.7182 47.76 13.2725L46.5641 14.8097C46.1859 14.36 45.7388 14.0097 45.2226 13.7588ZM72.9592 18.5994C73.2157 18.7132 73.4456 18.8811 73.649 19.1031C74.0669 19.5592 74.2759 20.2119 74.2759 21.0611V22.7442H72.3034V21.2341C72.3034 20.6406 71.8032 19.4792 70.1632 19.41C70.1456 19.4101 67.7708 19.4101 67.7708 19.4101V22.6499H65.7218V11.6411H70.1101C71.4558 11.6411 72.498 11.9714 73.237 12.6319C73.9761 13.2925 74.3456 14.2256 74.3456 15.4312C74.3456 16.6895 73.9761 17.6671 73.237 18.3644C73.1488 18.4476 73.0561 18.5259 72.9592 18.5994ZM71.7845 17.0355C72.1973 16.6895 72.4037 16.1757 72.4037 15.4941C72.4037 14.8231 72.1973 14.3199 71.7845 13.9844C71.3717 13.6489 70.7779 13.4811 70.0031 13.4811H67.7708V17.5544H70.0031C70.7779 17.5544 71.3717 17.3814 71.7845 17.0355ZM10.175 26.0059C11.9158 27.2356 14.0193 27.9705 16.2906 27.9705C18.8563 27.9705 21.208 27.0327 23.0359 25.4737L24.3958 26.865C22.2171 28.7765 19.3857 29.9312 16.2906 29.9312C14.1848 29.9312 12.2011 29.3968 10.462 28.4531L9.04297 29.8887C11.1708 31.1621 13.6473 31.8921 16.2906 31.8921C19.915 31.8921 23.226 30.5197 25.7544 28.255L27.1123 29.6442C24.2349 32.2624 20.4442 33.8529 16.2906 33.8529C12.4301 33.8529 8.8834 32.4791 6.09183 30.1834L10.175 26.0059ZM5.33591 28.1837L4.66921 28.8658C1.7813 25.8585 0 21.7351 0 17.1862C0 7.98146 7.29352 0.519531 16.2906 0.519531C20.7369 0.519531 24.7671 2.34197 27.7067 5.29655L26.3513 6.68309C23.7588 4.08331 20.2077 2.48031 16.2906 2.48031C8.352 2.48031 1.91653 9.06437 1.91653 17.1862C1.91653 20.4887 2.98057 23.5369 4.77703 25.9917L6.15486 24.5978C4.69331 22.5095 3.83307 19.9506 3.83307 17.1862C3.83307 10.1473 9.41048 4.4411 16.2906 4.4411C19.6783 4.4411 22.7503 5.82467 24.9961 8.06966L21.4348 11.7131L20.93 12.2296L20.7417 12.0519C19.5574 10.9765 17.9986 10.3235 16.2906 10.3235C12.5859 10.3235 9.58268 13.396 9.58268 17.1862C9.58268 20.9764 12.5859 24.0489 16.2906 24.0489C17.7972 24.0489 19.188 23.5407 20.3078 22.6827L21.6738 24.0802C20.1983 25.2877 18.3269 26.0097 16.2906 26.0097C11.5274 26.0097 7.66614 22.0592 7.66614 17.1862C7.66614 12.3131 11.5274 8.36267 16.2906 8.36267C17.9268 8.36267 19.4566 8.82882 20.7599 9.6384L22.157 8.22504C20.48 7.07361 18.462 6.40188 16.2906 6.40188C10.4689 6.40188 5.7496 11.2301 5.7496 17.1862C5.7496 20.1108 6.8875 22.7635 8.73504 24.7061L5.33591 28.1837ZM26.8314 17.1862C26.8314 14.8625 26.1131 12.7105 24.8913 10.9498L26.2629 9.54657C27.8234 11.6754 28.748 14.3204 28.748 17.1862C28.748 20.3528 27.6193 23.2496 25.751 25.4786L24.391 24.0872C25.9148 22.2171 26.8314 19.8112 26.8314 17.1862Z" fill="black"/>
</svg>
